<svg width="214" height="214" viewBox="0 0 214 214" fill="none" xmlns="http://www.w3.org/2000/svg">
<path d="M96.3333 160.333H117.667V117.666H160.333V96.333H117.667V53.6663H96.3333V96.333H53.6666V117.666H96.3333V160.333ZM107 213.666C92.2444 213.666 78.3777 210.865 65.3999 205.261C52.4221 199.657 41.1333 192.059 31.5333 182.466C21.9333 172.866 14.335 161.577 8.73859 148.6C3.14214 135.622 0.340363 121.755 0.333252 107C0.333252 92.2441 3.13503 78.3775 8.73859 65.3997C14.3421 52.4219 21.9404 41.133 31.5333 31.533C41.1333 21.933 52.4221 14.3348 65.3999 8.73834C78.3777 3.1419 92.2444 0.340119 107 0.333008C121.755 0.333008 135.622 3.13479 148.6 8.73834C161.578 14.3419 172.867 21.9401 182.467 31.533C192.067 41.133 199.668 52.4219 205.272 65.3997C210.875 78.3775 213.674 92.2441 213.667 107C213.667 121.755 210.865 135.622 205.261 148.6C199.658 161.577 192.059 172.866 182.467 182.466C172.867 192.066 161.578 199.668 148.6 205.272C135.622 210.875 121.755 213.673 107 213.666ZM107 192.333C130.822 192.333 151 184.066 167.533 167.533C184.067 151 192.333 130.822 192.333 107C192.333 83.1775 184.067 62.9997 167.533 46.4663C151 29.933 130.822 21.6663 107 21.6663C83.1777 21.6663 62.9999 29.933 46.4666 46.4663C29.9333 62.9997 21.6666 83.1775 21.6666 107C21.6666 130.822 29.9333 151 46.4666 167.533C62.9999 184.066 83.1777 192.333 107 192.333Z" fill="#2FC6B7"/>
</svg>
