<svg width="150" height="150" viewBox="0 0 500 500" fill="none" xmlns="http://www.w3.org/2000/svg">
<g clip-path="url(#clip0_508_14)">
<path d="M395.801 187.5L312.5 0H270.801L354.102 187.5H395.801ZM229.199 0H187.5L104.199 187.5H145.898L229.199 0ZM41.6992 458.301C41.6992 481.25 60.3516 500 83.3984 500H416.699C439.648 500 458.398 481.348 458.398 458.301L479.199 270.801H20.8008L41.6992 458.301ZM354.199 312.5H395.898L375 458.301H333.301L354.199 312.5ZM229.199 312.5H270.898V458.301H229.199V312.5ZM145.801 312.5L166.602 458.301H125L104.199 312.5H145.801ZM479.199 208.301H20.8008C9.27734 208.301 0 217.676 0 229.199V250H500V229.199C500 217.676 490.723 208.301 479.199 208.301Z" fill="#2FC6B7"/>
</g>
<defs>
<clipPath id="clip0_508_14">
<rect width="500" height="500" fill="white"/>
</clipPath>
</defs>
</svg>
