<svg width="49" height="45" viewBox="0 0 49 45" fill="none" xmlns="http://www.w3.org/2000/svg">
<path d="M43.8699 7.01313C43.3977 6.75402 43.1042 6.25633 43.1042 5.71419V4.18889C43.6776 4.09075 44.1163 3.58721 44.1163 2.98085V1.22664C44.1163 0.550325 43.571 0 42.9008 0H34.512C33.8418 0 33.2966 0.550325 33.2966 1.22664V2.98085C33.2966 3.587 33.7349 4.09065 34.3082 4.18878V5.71419C34.3082 5.97978 34.237 6.24091 34.1022 6.46919C33.9671 6.6981 33.7734 6.88639 33.5426 7.01303C30.3784 8.7481 28.4127 12.0836 28.4127 15.7181V16.7562H6.35952C4.83285 16.7562 3.55744 17.9113 3.39298 19.443L2.37231 28.942L3.41963 29.0566L4.4403 19.5576C4.54681 18.5668 5.37183 17.8194 6.35952 17.8194H29.4227C30.4103 17.8194 31.2354 18.5667 31.3419 19.5576L32.3617 29.048L33.409 28.9334L32.8274 23.52H42.517V32.3609H36.1849V33.4241H43.5706V20.0275H32.452L32.3892 19.443C32.2262 17.926 30.9735 16.7791 29.4663 16.7573V15.7182C29.4663 15.2962 29.4965 14.8789 29.5545 14.4685C30.6102 14.5885 31.2116 15.018 31.8896 15.5052C32.7169 16.0996 33.6545 16.7733 35.4507 16.7733C37.2468 16.7733 38.1845 16.0996 39.0119 15.5052C39.8118 14.9305 40.5025 14.4342 41.962 14.4342C43.4216 14.4342 44.1123 14.9305 44.9123 15.5052C45.6542 16.0383 46.4871 16.6335 47.9464 16.751V41.8682C47.9464 42.9745 47.055 43.8745 45.9595 43.8745H33.1464V44.9377H45.9595C47.636 44.9377 49 43.5607 49 41.8682V15.7192C49 12.084 47.0343 8.7481 43.8699 7.01313ZM42.517 21.0906V22.4567H32.7132L32.5663 21.0906H42.517ZM34.3503 1.22664C34.3503 1.13648 34.4228 1.06322 34.5121 1.06322H42.9009C42.9903 1.06322 43.0629 1.13648 43.0629 1.22664V2.98085C43.0629 3.07102 42.9903 3.14427 42.9009 3.14427H34.5121C34.4228 3.14427 34.3503 3.07102 34.3503 2.98085V1.22664ZM45.5233 14.6389C44.696 14.0444 43.7583 13.3708 41.962 13.3708C40.1659 13.3708 39.2282 14.0444 38.4008 14.6389C37.6009 15.2136 36.9102 15.7099 35.4507 15.7099C33.9912 15.7099 33.3004 15.2136 32.5006 14.6389C31.8109 14.1433 31.0427 13.5942 29.7661 13.4247C30.3797 11.1156 31.9051 9.12087 34.046 7.94696C34.4431 7.7289 34.7756 7.40599 35.0074 7.01324C35.0923 6.86939 35.1622 6.71798 35.2171 6.56137H40.1506V5.49814H35.3617V4.2076H42.0506V5.71419C42.0506 6.64632 42.555 7.5019 43.3668 7.94728C46.1819 9.49087 47.9338 12.4538 47.9457 15.6857C46.8344 15.5804 46.22 15.1395 45.5233 14.6389Z" fill="black"/>
<path d="M34.0783 37.8704C35.0252 37.8579 35.7919 37.0776 35.7919 36.119C35.7919 35.1604 35.0251 34.3802 34.0779 34.3678C34.0779 34.3648 34.0783 34.3617 34.0783 34.3587C34.0783 32.9771 33.5327 31.4319 32.6189 30.2256C31.5975 28.8769 30.2908 28.1342 28.9398 28.1342C28.5556 28.1342 28.1753 28.1963 27.8039 28.3133C26.8273 26.2954 25.1353 25.0177 23.3859 25.0177C21.6454 25.0177 19.9558 26.289 18.9761 28.2959C18.6224 28.1902 18.2609 28.1342 17.896 28.1342C17.5048 28.1342 17.1177 28.1984 16.7399 28.3194C15.7635 26.2977 14.0706 25.0176 12.3188 25.0176C10.5825 25.0176 8.89531 26.2843 7.91563 28.284C7.57407 28.1857 7.22535 28.1342 6.87358 28.1342C5.52221 28.1342 4.21551 28.8769 3.19411 30.2256C2.28059 31.4318 1.73517 32.9769 1.73517 34.3587C1.73517 34.3614 1.73538 34.3641 1.73538 34.3667C0.778457 34.3674 0 35.1531 0 36.1189C0 37.0847 0.778035 37.8704 1.73475 37.8712V39.9417C1.73475 42.7226 3.97646 44.985 6.73209 44.985C8.8027 44.985 10.5832 43.7074 11.3404 41.8923H13.2959C14.0495 43.7152 15.8337 45 17.9099 45C19.9862 45 21.7702 43.7152 22.5239 41.8923H24.4725C25.1419 43.4969 26.6112 44.6806 28.3736 44.9337V44.937C28.3805 44.937 28.3876 44.9363 28.3946 44.9363C28.6191 44.9675 28.8479 44.9849 29.0807 44.9849C31.8362 44.9849 34.0782 42.7226 34.0782 39.9416V37.8704H34.0783ZM28.9399 29.1975C31.1399 29.1975 33.0247 32.0355 33.0247 34.3589C33.0247 34.3614 33.0245 34.3642 33.0245 34.3668H24.8553C24.8553 34.3642 24.8551 34.3614 24.8551 34.3589C24.8551 32.0356 26.74 29.1975 28.9399 29.1975ZM23.386 26.081C24.8833 26.081 26.1513 27.3627 26.8436 28.7548C26.2706 29.1061 25.7346 29.5995 25.2605 30.2257C24.3469 31.4319 23.8015 32.977 23.8015 34.3589C23.8015 34.3614 23.8017 34.3642 23.8018 34.3668H23.0342C23.0342 34.3642 23.0344 34.3614 23.0344 34.3589C23.0344 32.9772 22.4889 31.432 21.5751 30.2257C21.0874 29.5817 20.5343 29.0778 19.9429 28.7251C20.6387 27.3471 21.9021 26.081 23.386 26.081ZM17.896 29.1975C20.096 29.1975 21.9807 32.0355 21.9807 34.3589C21.9807 34.3614 21.9805 34.3642 21.9805 34.3668H13.8113C13.8113 34.3642 13.8111 34.3614 13.8111 34.3589C13.8112 32.0356 15.6962 29.1975 17.896 29.1975ZM12.3189 26.081C13.8203 26.081 15.0903 27.3684 15.7821 28.7657C15.2157 29.1162 14.6859 29.606 14.2166 30.2257C13.3031 31.4319 12.7577 32.977 12.7577 34.3589C12.7577 34.3614 12.7579 34.3642 12.7579 34.3668H12.0119C12.0119 34.3642 12.0121 34.3614 12.0121 34.3589C12.0121 32.9772 11.4666 31.432 10.5527 30.2257C10.0558 29.5696 9.49119 29.0583 8.88699 28.7047C9.58337 27.3363 10.8425 26.081 12.3189 26.081ZM6.87368 29.1975C9.07357 29.1975 10.9584 32.0355 10.9584 34.3589C10.9584 34.3614 10.9582 34.3642 10.9582 34.3668H2.78913C2.78913 34.3642 2.78892 34.3614 2.78892 34.3589C2.78892 32.0356 4.6738 29.1975 6.87368 29.1975ZM2.7885 39.9419V37.8715H3.44864V39.9243C3.44864 41.1328 3.7863 42.2427 4.34773 43.1093C3.40092 42.3815 2.7885 41.2328 2.7885 39.9419ZM11.6506 40.8293C11.7015 40.5411 11.7296 40.2449 11.7296 39.9419V39.6781C11.7296 39.3508 11.9934 39.0846 12.3246 39.0846C12.6488 39.0846 12.9126 39.3508 12.9126 39.6781V39.9568C12.9126 40.2545 12.9398 40.5456 12.989 40.8293H11.6506ZM22.8309 40.8293C22.8802 40.5456 22.9074 40.2545 22.9074 39.9568V39.6781C22.9074 39.3508 23.1712 39.0846 23.4954 39.0846C23.8197 39.0846 24.0835 39.3508 24.0835 39.6781V39.9419C24.0835 40.2449 24.1116 40.5411 24.1625 40.8293H22.8309ZM31.2576 39.9243C31.2576 42.0653 30.0072 43.8125 28.4542 43.8712C26.5765 43.5673 25.1371 41.9212 25.1371 39.9419V39.6781C25.1371 38.7645 24.4007 38.0213 23.4955 38.0213C22.5903 38.0213 21.854 38.7645 21.854 39.6781V39.9568C21.854 42.1515 20.0848 43.937 17.9101 43.937C15.7355 43.937 13.9663 42.1515 13.9663 39.9568V39.6781C13.9663 38.7645 13.2299 38.0213 12.3177 38.0213C11.4126 38.0213 10.6762 38.7645 10.6762 39.6781V39.9419C10.6762 41.9243 9.23255 43.5724 7.35051 43.8728C5.77674 43.8464 4.50228 42.0858 4.50228 39.9243V37.8715H31.2577V39.9243H31.2576ZM33.0247 39.9419C33.0247 41.2807 32.3656 42.4663 31.3587 43.1881C31.9516 42.3103 32.3112 41.1702 32.3112 39.9243V37.8715H33.0247V39.9419ZM1.73665 36.8083C1.36011 36.8083 1.05385 36.4991 1.05385 36.1191C1.05385 35.7392 1.36011 35.4302 1.73665 35.4302H34.0555C34.432 35.4302 34.7384 35.7392 34.7384 36.1191C34.7384 36.4991 34.432 36.8083 34.0555 36.8083H1.73665Z" fill="black"/>
<path d="M8.25279 20.0582C8.25279 19.2906 7.63405 18.666 6.87339 18.666C6.11274 18.666 5.4939 19.2906 5.4939 20.0582C5.4939 20.8258 6.11274 21.4504 6.87339 21.4504C7.63405 21.4504 8.25279 20.8258 8.25279 20.0582ZM6.54754 20.0582C6.54754 19.8768 6.69377 19.7292 6.8735 19.7292C7.05313 19.7292 7.19936 19.8768 7.19936 20.0582C7.19936 20.2396 7.05313 20.3872 6.8735 20.3872C6.69366 20.3872 6.54754 20.2396 6.54754 20.0582Z" fill="black"/>
<path d="M28.9398 21.4504C29.7006 21.4504 30.3193 20.8258 30.3193 20.0582C30.3193 19.2906 29.7006 18.666 28.9398 18.666C28.1793 18.666 27.5603 19.2906 27.5603 20.0582C27.5603 20.8258 28.1793 21.4504 28.9398 21.4504ZM28.9398 19.7292C29.1195 19.7292 29.2658 19.8768 29.2658 20.0582C29.2658 20.2396 29.1195 20.3872 28.9398 20.3872C28.7602 20.3872 28.6138 20.2396 28.6138 20.0582C28.6138 19.8768 28.7602 19.7292 28.9398 19.7292Z" fill="black"/>
<path d="M26.3013 19.5835H24.2422V20.6467H26.3013V19.5835Z" fill="black"/>
<path d="M23.0125 19.5835H9.58618V20.6467H23.0125V19.5835Z" fill="black"/>
<path d="M46.451 35.0298H45.3975V36.696H46.451V35.0298Z" fill="black"/>
<path d="M46.451 19.9824H45.3975V33.5102H46.451V19.9824Z" fill="black"/>
</svg>
