<svg width="70" height="70" viewBox="0 0 70 70" fill="none" xmlns="http://www.w3.org/2000/svg">
<rect x="2" y="2" width="66" height="66" rx="18" fill="#F5F5F5" stroke="#2FC6B7" stroke-width="4"/>
<mask id="path-2-inside-1_193_738" fill="white">
<path d="M53.87 19.0131C53.3978 18.754 53.1043 18.2563 53.1043 17.7142V16.1889C53.6777 16.0908 54.1164 15.5872 54.1164 14.9809V13.2266C54.1164 12.5503 53.5711 12 52.901 12H44.5121C43.8419 12 43.2967 12.5503 43.2967 13.2266V14.9809C43.2967 15.587 43.735 16.0906 44.3083 16.1888V17.7142C44.3083 17.9798 44.2371 18.2409 44.1024 18.4692C43.9672 18.6981 43.7736 18.8864 43.5427 19.013C40.3785 20.7481 38.4129 24.0836 38.4129 27.7181V28.7562H16.3596C14.833 28.7562 13.5576 29.9113 13.3931 31.443L12.3724 40.942L13.4198 41.0566L14.4404 31.5576C14.5469 30.5668 15.372 29.8194 16.3596 29.8194H39.4228C40.4105 29.8194 41.2355 30.5667 41.342 31.5576L42.3618 41.048L43.4091 40.9334L42.8275 35.52H52.5172V44.3609H46.185V45.4241H53.5707V32.0275H42.4521L42.3893 31.443C42.2263 29.926 40.9736 28.7791 39.4664 28.7573V27.7182C39.4664 27.2962 39.4966 26.8789 39.5546 26.4685C40.6103 26.5885 41.2117 27.018 41.8897 27.5052C42.717 28.0996 43.6546 28.7733 45.4508 28.7733C47.247 28.7733 48.1846 28.0996 49.0121 27.5052C49.8119 26.9305 50.5026 26.4342 51.9622 26.4342C53.4217 26.4342 54.1124 26.9305 54.9124 27.5052C55.6543 28.0383 56.4872 28.6335 57.9466 28.751V53.8682C57.9466 54.9745 57.0552 55.8745 55.9596 55.8745H43.1465V56.9377H55.9596C57.6361 56.9377 59.0001 55.5607 59.0001 53.8682V27.7192C59.0001 24.084 57.0344 20.7481 53.87 19.0131ZM52.5172 33.0906V34.4567H42.7133L42.5664 33.0906H52.5172ZM44.3504 13.2266C44.3504 13.1365 44.423 13.0632 44.5122 13.0632H52.9011C52.9904 13.0632 53.063 13.1365 53.063 13.2266V14.9809C53.063 15.071 52.9904 15.1443 52.9011 15.1443H44.5122C44.423 15.1443 44.3504 15.071 44.3504 14.9809V13.2266ZM55.5234 26.6389C54.6961 26.0444 53.7584 25.3708 51.9622 25.3708C50.166 25.3708 49.2283 26.0444 48.4009 26.6389C47.6011 27.2136 46.9104 27.7099 45.4508 27.7099C43.9913 27.7099 43.3005 27.2136 42.5007 26.6389C41.811 26.1433 41.0428 25.5942 39.7662 25.4247C40.3798 23.1156 41.9052 21.1209 44.0461 19.947C44.4432 19.7289 44.7757 19.406 45.0076 19.0132C45.0924 18.8694 45.1623 18.718 45.2172 18.5614H50.1507V17.4981H45.3619V16.2076H52.0508V17.7142C52.0508 18.6463 52.5551 19.5019 53.3669 19.9473C56.182 21.4909 57.9339 24.4538 57.9458 27.6857C56.8345 27.5804 56.2201 27.1395 55.5234 26.6389Z"/>
</mask>
<path d="M53.87 19.0131C53.3978 18.754 53.1043 18.2563 53.1043 17.7142V16.1889C53.6777 16.0908 54.1164 15.5872 54.1164 14.9809V13.2266C54.1164 12.5503 53.5711 12 52.901 12H44.5121C43.8419 12 43.2967 12.5503 43.2967 13.2266V14.9809C43.2967 15.587 43.735 16.0906 44.3083 16.1888V17.7142C44.3083 17.9798 44.2371 18.2409 44.1024 18.4692C43.9672 18.6981 43.7736 18.8864 43.5427 19.013C40.3785 20.7481 38.4129 24.0836 38.4129 27.7181V28.7562H16.3596C14.833 28.7562 13.5576 29.9113 13.3931 31.443L12.3724 40.942L13.4198 41.0566L14.4404 31.5576C14.5469 30.5668 15.372 29.8194 16.3596 29.8194H39.4228C40.4105 29.8194 41.2355 30.5667 41.342 31.5576L42.3618 41.048L43.4091 40.9334L42.8275 35.52H52.5172V44.3609H46.185V45.4241H53.5707V32.0275H42.4521L42.3893 31.443C42.2263 29.926 40.9736 28.7791 39.4664 28.7573V27.7182C39.4664 27.2962 39.4966 26.8789 39.5546 26.4685C40.6103 26.5885 41.2117 27.018 41.8897 27.5052C42.717 28.0996 43.6546 28.7733 45.4508 28.7733C47.247 28.7733 48.1846 28.0996 49.0121 27.5052C49.8119 26.9305 50.5026 26.4342 51.9622 26.4342C53.4217 26.4342 54.1124 26.9305 54.9124 27.5052C55.6543 28.0383 56.4872 28.6335 57.9466 28.751V53.8682C57.9466 54.9745 57.0552 55.8745 55.9596 55.8745H43.1465V56.9377H55.9596C57.6361 56.9377 59.0001 55.5607 59.0001 53.8682V27.7192C59.0001 24.084 57.0344 20.7481 53.87 19.0131ZM52.5172 33.0906V34.4567H42.7133L42.5664 33.0906H52.5172ZM44.3504 13.2266C44.3504 13.1365 44.423 13.0632 44.5122 13.0632H52.9011C52.9904 13.0632 53.063 13.1365 53.063 13.2266V14.9809C53.063 15.071 52.9904 15.1443 52.9011 15.1443H44.5122C44.423 15.1443 44.3504 15.071 44.3504 14.9809V13.2266ZM55.5234 26.6389C54.6961 26.0444 53.7584 25.3708 51.9622 25.3708C50.166 25.3708 49.2283 26.0444 48.4009 26.6389C47.6011 27.2136 46.9104 27.7099 45.4508 27.7099C43.9913 27.7099 43.3005 27.2136 42.5007 26.6389C41.811 26.1433 41.0428 25.5942 39.7662 25.4247C40.3798 23.1156 41.9052 21.1209 44.0461 19.947C44.4432 19.7289 44.7757 19.406 45.0076 19.0132C45.0924 18.8694 45.1623 18.718 45.2172 18.5614H50.1507V17.4981H45.3619V16.2076H52.0508V17.7142C52.0508 18.6463 52.5551 19.5019 53.3669 19.9473C56.182 21.4909 57.9339 24.4538 57.9458 27.6857C56.8345 27.5804 56.2201 27.1395 55.5234 26.6389Z" fill="black"/>
<path d="M53.87 19.0131L51.9457 22.5199L51.947 22.5205L53.87 19.0131ZM53.1043 16.1889L52.4296 12.2462L49.1043 12.8153V16.1889H53.1043ZM44.3083 16.1888H48.3083V12.8153L44.9832 12.2461L44.3083 16.1888ZM44.1024 18.4692L47.5467 20.503L47.547 20.5025L44.1024 18.4692ZM43.5427 19.013L45.466 22.5203L45.4666 22.52L43.5427 19.013ZM38.4129 28.7562V32.7562H42.4129V28.7562H38.4129ZM13.3931 31.443L17.3702 31.8703L17.3702 31.87L13.3931 31.443ZM12.3724 40.942L8.39533 40.5147L7.96883 44.484L11.9373 44.9183L12.3724 40.942ZM13.4198 41.0566L12.9846 45.0329L16.9687 45.4689L17.3969 41.484L13.4198 41.0566ZM14.4404 31.5576L10.4633 31.13L10.4633 31.1302L14.4404 31.5576ZM41.342 31.5576L45.3191 31.1302L45.3191 31.1301L41.342 31.5576ZM42.3618 41.048L38.3847 41.4754L38.8129 45.4603L42.797 45.0243L42.3618 41.048ZM43.4091 40.9334L43.8443 44.9097L47.8127 44.4754L47.3863 40.5061L43.4091 40.9334ZM42.8275 35.52V31.52H38.3747L38.8504 35.9473L42.8275 35.52ZM52.5172 35.52H56.5172V31.52H52.5172V35.52ZM52.5172 44.3609V48.3609H56.5172V44.3609H52.5172ZM46.185 44.3609V40.3609H42.185V44.3609H46.185ZM46.185 45.4241H42.185V49.4241H46.185V45.4241ZM53.5707 45.4241V49.4241H57.5707V45.4241H53.5707ZM53.5707 32.0275H57.5707V28.0275H53.5707V32.0275ZM42.4521 32.0275L38.475 32.4547L38.8588 36.0275H42.4521V32.0275ZM42.3893 31.443L46.3664 31.0158L46.3664 31.0157L42.3893 31.443ZM39.4664 28.7573H35.4664V32.6998L39.4086 32.7568L39.4664 28.7573ZM39.5546 26.4685L40.0065 22.4941L36.1381 22.0542L35.5939 25.9093L39.5546 26.4685ZM41.8897 27.5052L39.5558 30.7537L39.5558 30.7537L41.8897 27.5052ZM49.0121 27.5052L51.3456 30.754L51.346 30.7537L49.0121 27.5052ZM54.9124 27.5052L57.2465 24.2569L57.2461 24.2566L54.9124 27.5052ZM57.9466 28.751H61.9466V25.0601L58.2675 24.7639L57.9466 28.751ZM43.1465 55.8745V51.8745H39.1465V55.8745H43.1465ZM43.1465 56.9377H39.1465V60.9377H43.1465V56.9377ZM52.5172 33.0906H56.5172V29.0906H52.5172V33.0906ZM52.5172 34.4567V38.4567H56.5172V34.4567H52.5172ZM42.7133 34.4567L38.7362 34.8843L39.1203 38.4567H42.7133V34.4567ZM42.5664 33.0906V29.0906H38.1133L38.5893 33.5182L42.5664 33.0906ZM55.5234 26.6389L53.1894 29.8873L53.1895 29.8874L55.5234 26.6389ZM48.4009 26.6389L46.0671 23.3903L46.0669 23.3904L48.4009 26.6389ZM42.5007 26.6389L40.1665 29.8872L40.1667 29.8874L42.5007 26.6389ZM39.7662 25.4247L35.9004 24.3975L34.7328 28.7915L39.2398 29.3899L39.7662 25.4247ZM44.0461 19.947L45.9693 23.4543L45.9716 23.453L44.0461 19.947ZM45.0076 19.0132L48.452 21.0469L48.4533 21.0447L45.0076 19.0132ZM45.2172 18.5614V14.5614H42.3806L41.4424 17.2384L45.2172 18.5614ZM50.1507 18.5614V22.5614H54.1507V18.5614H50.1507ZM50.1507 17.4981H54.1507V13.4981H50.1507V17.4981ZM45.3619 17.4981H41.3619V21.4981H45.3619V17.4981ZM45.3619 16.2076V12.2076H41.3619V16.2076H45.3619ZM52.0508 16.2076H56.0508V12.2076H52.0508V16.2076ZM53.3669 19.9473L51.443 23.4542L51.4438 23.4546L53.3669 19.9473ZM57.9458 27.6857L57.5682 31.6679L61.962 32.0845L61.9458 27.671L57.9458 27.6857ZM55.7943 15.5064C56.6117 15.955 57.1043 16.8071 57.1043 17.7142H49.1043C49.1043 19.7056 50.1839 21.5531 51.9457 22.5199L55.7943 15.5064ZM57.1043 17.7142V16.1889H49.1043V17.7142H57.1043ZM53.779 20.1316C56.2563 19.7076 58.1164 17.5533 58.1164 14.9809H50.1164C50.1164 13.6212 51.0992 12.4739 52.4296 12.2462L53.779 20.1316ZM58.1164 14.9809V13.2266H50.1164V14.9809H58.1164ZM58.1164 13.2266C58.1164 10.3758 55.8147 8 52.901 8V16C51.3275 16 50.1164 14.7249 50.1164 13.2266H58.1164ZM52.901 8H44.5121V16H52.901V8ZM44.5121 8C41.5979 8 39.2967 10.3762 39.2967 13.2266H47.2967C47.2967 14.7244 46.086 16 44.5121 16V8ZM39.2967 13.2266V14.9809H47.2967V13.2266H39.2967ZM39.2967 14.9809C39.2967 17.5509 41.1543 19.7071 43.6335 20.1314L44.9832 12.2461C46.3157 12.4742 47.2967 13.6231 47.2967 14.9809H39.2967ZM40.3083 16.1888V17.7142H48.3083V16.1888H40.3083ZM40.3083 17.7142C40.3083 17.2663 40.428 16.825 40.6577 16.4359L47.547 20.5025C48.0462 19.6568 48.3083 18.6933 48.3083 17.7142H40.3083ZM40.658 16.4354C40.8837 16.0531 41.2121 15.7292 41.6189 15.5061L45.4666 22.52C46.335 22.0436 47.0507 21.3431 47.5467 20.503L40.658 16.4354ZM41.6195 15.5057C37.1633 17.9493 34.4129 22.6361 34.4129 27.7181H42.4129C42.4129 25.5312 43.5938 23.5469 45.466 22.5203L41.6195 15.5057ZM34.4129 27.7181V28.7562H42.4129V27.7181H34.4129ZM38.4129 24.7562H16.3596V32.7562H38.4129V24.7562ZM16.3596 24.7562C12.7603 24.7562 9.79552 27.4809 9.41596 31.0159L17.3702 31.87C17.3196 32.3417 16.9056 32.7562 16.3596 32.7562V24.7562ZM9.41599 31.0156L8.39533 40.5147L16.3495 41.3694L17.3702 31.8703L9.41599 31.0156ZM11.9373 44.9183L12.9846 45.0329L13.8549 37.0804L12.8076 36.9658L11.9373 44.9183ZM17.3969 41.484L18.4175 31.9849L10.4633 31.1302L9.44265 40.6293L17.3969 41.484ZM18.4175 31.9851C18.3087 32.9969 17.445 33.8194 16.3596 33.8194V25.8194C13.2989 25.8194 10.7851 28.1366 10.4633 31.13L18.4175 31.9851ZM16.3596 33.8194H39.4228V25.8194H16.3596V33.8194ZM39.4228 33.8194C38.3376 33.8194 37.4737 32.997 37.3649 31.9851L45.3191 31.1301C44.9973 28.1364 42.4833 25.8194 39.4228 25.8194V33.8194ZM37.3649 31.985L38.3847 41.4754L46.3389 40.6207L45.3191 31.1302L37.3649 31.985ZM42.797 45.0243L43.8443 44.9097L42.974 36.9571L41.9267 37.0718L42.797 45.0243ZM47.3863 40.5061L46.8046 35.0927L38.8504 35.9473L39.432 41.3607L47.3863 40.5061ZM42.8275 39.52H52.5172V31.52H42.8275V39.52ZM48.5172 35.52V44.3609H56.5172V35.52H48.5172ZM52.5172 40.3609H46.185V48.3609H52.5172V40.3609ZM42.185 44.3609V45.4241H50.185V44.3609H42.185ZM46.185 49.4241H53.5707V41.4242H46.185V49.4241ZM57.5707 45.4241V32.0275H49.5707V45.4241H57.5707ZM53.5707 28.0275H42.4521V36.0275H53.5707V28.0275ZM46.4292 31.6003L46.3664 31.0158L38.4122 31.8702L38.475 32.4547L46.4292 31.6003ZM46.3664 31.0157C45.9901 27.5132 43.0775 24.8091 39.5242 24.7577L39.4086 32.7568C38.8696 32.7491 38.4625 32.3387 38.4122 31.8703L46.3664 31.0157ZM43.4664 28.7573V27.7182H35.4664V28.7573H43.4664ZM43.4664 27.7182C43.4664 27.4874 43.4829 27.257 43.5153 27.0277L35.5939 25.9093C35.5104 26.5007 35.4664 27.1049 35.4664 27.7182H43.4664ZM39.1027 30.4429C39.1392 30.447 39.1401 30.4499 39.118 30.4432C39.1084 30.4404 39.0985 30.4369 39.0894 30.4333C39.0805 30.4297 39.0759 30.4273 39.0769 30.4278C39.0798 30.4293 39.1109 30.445 39.1891 30.4964C39.2774 30.5545 39.3763 30.6247 39.5558 30.7537L44.2237 24.2567C43.4926 23.7315 42.166 22.7396 40.0065 22.4941L39.1027 30.4429ZM39.5558 30.7537C40.562 31.4766 42.3603 32.7733 45.4508 32.7733V24.7733C45.0895 24.7733 44.9462 24.713 44.8921 24.6897C44.7782 24.6405 44.6601 24.5703 44.2237 24.2567L39.5558 30.7537ZM45.4508 32.7733C48.5413 32.7733 50.3395 31.4766 51.3456 30.754L46.6785 24.2564C46.2418 24.5701 46.1236 24.6404 46.0095 24.6896C45.9554 24.713 45.8121 24.7733 45.4508 24.7733V32.7733ZM51.346 30.7537C51.5623 30.5983 51.6641 30.5265 51.7533 30.4697C51.8256 30.4237 51.8405 30.42 51.8213 30.4282C51.8122 30.4322 51.8004 30.4367 51.7877 30.4406C51.7751 30.4445 51.7681 30.4459 51.7691 30.4457C51.7695 30.4456 51.8258 30.4342 51.9622 30.4342V22.4342C50.7399 22.4342 49.6579 22.6498 48.6581 23.0802C47.7424 23.4744 47.0312 24.003 46.6781 24.2567L51.346 30.7537ZM51.9622 30.4342C52.0985 30.4342 52.1549 30.4456 52.1552 30.4457C52.1562 30.4459 52.1492 30.4445 52.1366 30.4406C52.124 30.4367 52.1121 30.4322 52.1031 30.4283C52.0839 30.42 52.0988 30.4237 52.1712 30.4698C52.2605 30.5266 52.3623 30.5984 52.5786 30.7538L57.2461 24.2566C56.8931 24.0029 56.1818 23.4743 55.2662 23.0802C54.2664 22.6498 53.1844 22.4342 51.9622 22.4342V30.4342ZM52.5782 30.7536C53.4265 31.3631 55.0151 32.5279 57.6256 32.7381L58.2675 24.7639C58.0477 24.7462 57.9467 24.7042 57.8798 24.6723C57.7618 24.6162 57.6363 24.5369 57.2465 24.2569L52.5782 30.7536ZM53.9466 28.751V53.8682H61.9466V28.751H53.9466ZM53.9466 53.8682C53.9466 52.8019 54.8096 51.8745 55.9596 51.8745V59.8745C59.3007 59.8745 61.9466 57.147 61.9466 53.8682H53.9466ZM55.9596 51.8745H43.1465V59.8745H55.9596V51.8745ZM39.1465 55.8745V56.9377H47.1465V55.8745H39.1465ZM43.1465 60.9377H55.9596V52.9377H43.1465V60.9377ZM55.9596 60.9377C59.8809 60.9377 63.0001 57.734 63.0001 53.8682H55.0001C55.0001 53.3875 55.3912 52.9377 55.9596 52.9377V60.9377ZM63.0001 53.8682V27.7192H55.0001V53.8682H63.0001ZM63.0001 27.7192C63.0001 22.6367 60.2499 17.9493 55.793 15.5057L51.947 22.5205C53.8189 23.5469 55.0001 25.5312 55.0001 27.7192H63.0001ZM48.5172 33.0906V34.4567H56.5172V33.0906H48.5172ZM52.5172 30.4567H42.7133V38.4567H52.5172V30.4567ZM46.6904 34.0291L46.5435 32.6631L38.5893 33.5182L38.7362 34.8843L46.6904 34.0291ZM42.5664 37.0906H52.5172V29.0906H42.5664V37.0906ZM48.3504 13.2266C48.3504 15.3092 46.6683 17.0632 44.5122 17.0632V9.06322C42.1776 9.06322 40.3504 10.9637 40.3504 13.2266H48.3504ZM44.5122 17.0632H52.9011V9.06322H44.5122V17.0632ZM52.9011 17.0632C50.7469 17.0632 49.063 15.3111 49.063 13.2266H57.063C57.063 10.9619 55.2339 9.06322 52.9011 9.06322V17.0632ZM49.063 13.2266V14.9809H57.063V13.2266H49.063ZM49.063 14.9809C49.063 12.8964 50.7469 11.1443 52.9011 11.1443V19.1443C55.2339 19.1443 57.063 17.2456 57.063 14.9809H49.063ZM52.9011 11.1443H44.5122V19.1443H52.9011V11.1443ZM44.5122 11.1443C46.6683 11.1443 48.3504 12.8983 48.3504 14.9809H40.3504C40.3504 17.2438 42.1776 19.1443 44.5122 19.1443V11.1443ZM48.3504 14.9809V13.2266H40.3504V14.9809H48.3504ZM57.8574 23.3905C56.8508 22.6672 55.0526 21.3708 51.9622 21.3708V29.3708C52.3236 29.3708 52.467 29.4311 52.521 29.4545C52.6349 29.5036 52.7531 29.5738 53.1894 29.8873L57.8574 23.3905ZM51.9622 21.3708C48.8718 21.3708 47.0736 22.6672 46.0671 23.3903L50.7347 29.8875C51.1712 29.5739 51.2894 29.5036 51.4034 29.4545C51.4575 29.4311 51.6008 29.3708 51.9622 29.3708V21.3708ZM46.0669 23.3904C45.8507 23.5458 45.7489 23.6176 45.6597 23.6744C45.5874 23.7204 45.5725 23.7241 45.5916 23.7159C45.6007 23.7119 45.6126 23.7074 45.6252 23.7035C45.6378 23.6996 45.6448 23.6982 45.6438 23.6984C45.6435 23.6985 45.5871 23.7099 45.4508 23.7099V31.7099C46.673 31.7099 47.755 31.4943 48.7548 31.0639C49.6705 30.6697 50.3818 30.1411 50.7349 29.8874L46.0669 23.3904ZM45.4508 23.7099C45.3145 23.7099 45.2582 23.6985 45.2578 23.6984C45.2568 23.6982 45.2638 23.6996 45.2764 23.7035C45.289 23.7074 45.3009 23.7119 45.3099 23.7158C45.3291 23.7241 45.3142 23.7204 45.2418 23.6743C45.1527 23.6176 45.0508 23.5457 44.8347 23.3904L40.1667 29.8874C40.5199 30.1411 41.2311 30.6698 42.1468 31.0639C43.1466 31.4943 44.2286 31.7099 45.4508 31.7099V23.7099ZM44.8349 23.3906C44.0772 22.8462 42.6194 21.7684 40.2927 21.4595L39.2398 29.3899C39.3959 29.4106 39.4794 29.4443 39.5549 29.4823C39.6751 29.5428 39.8033 29.6262 40.1665 29.8872L44.8349 23.3906ZM43.6321 26.4519C43.9706 25.178 44.8081 24.091 45.9693 23.4543L42.1229 16.4396C39.0023 18.1507 36.789 21.0532 35.9004 24.3975L43.6321 26.4519ZM45.9716 23.453C47.0024 22.8869 47.8578 22.0534 48.452 21.0469L41.5631 16.9796C41.6936 16.7585 41.8839 16.5709 42.1206 16.4409L45.9716 23.453ZM48.4533 21.0447C48.6731 20.6719 48.8524 20.2828 48.9921 19.8844L41.4424 17.2384C41.4722 17.1531 41.5117 17.0668 41.5618 16.9818L48.4533 21.0447ZM45.2172 22.5614H50.1507V14.5614H45.2172V22.5614ZM54.1507 18.5614V17.4981H46.1507V18.5614H54.1507ZM50.1507 13.4981H45.3619V21.4981H50.1507V13.4981ZM49.3619 17.4981V16.2076H41.3619V17.4981H49.3619ZM45.3619 20.2076H52.0508V12.2076H45.3619V20.2076ZM48.0508 16.2076V17.7142H56.0508V16.2076H48.0508ZM48.0508 17.7142C48.0508 20.0947 49.3405 22.3008 51.443 23.4542L55.2909 16.4403C55.7697 16.703 56.0508 17.1979 56.0508 17.7142H48.0508ZM51.4438 23.4546C52.9706 24.2918 53.9392 25.9099 53.9458 27.7005L61.9458 27.671C61.9286 22.9976 59.3934 18.6899 55.2901 16.44L51.4438 23.4546ZM58.3234 23.7036C58.2757 23.6991 58.2698 23.6947 58.2915 23.7009C58.3144 23.7074 58.3336 23.7158 58.339 23.7184C58.3396 23.7188 58.3107 23.7048 58.2326 23.6536C58.1432 23.595 58.0436 23.5242 57.8574 23.3904L53.1895 29.8874C53.9507 30.4343 55.315 31.4542 57.5682 31.6679L58.3234 23.7036Z" fill="black" mask="url(#path-2-inside-1_193_738)"/>
<mask id="path-4-inside-2_193_738" fill="white">
<path d="M44.0783 49.8704C45.0252 49.8579 45.7919 49.0776 45.7919 48.119C45.7919 47.1604 45.0251 46.3802 44.0779 46.3678C44.0779 46.3648 44.0783 46.3617 44.0783 46.3587C44.0783 44.9771 43.5327 43.4319 42.6189 42.2256C41.5975 40.8769 40.2908 40.1342 38.9398 40.1342C38.5556 40.1342 38.1753 40.1963 37.8039 40.3133C36.8273 38.2954 35.1353 37.0177 33.3859 37.0177C31.6454 37.0177 29.9558 38.289 28.9761 40.2959C28.6224 40.1902 28.2609 40.1342 27.896 40.1342C27.5048 40.1342 27.1177 40.1984 26.7399 40.3194C25.7635 38.2977 24.0706 37.0176 22.3188 37.0176C20.5825 37.0176 18.8953 38.2843 17.9156 40.284C17.5741 40.1857 17.2254 40.1342 16.8736 40.1342C15.5222 40.1342 14.2155 40.8769 13.1941 42.2256C12.2806 43.4318 11.7352 44.9769 11.7352 46.3587C11.7352 46.3614 11.7354 46.3641 11.7354 46.3667C10.7785 46.3674 10 47.1531 10 48.1189C10 49.0847 10.778 49.8704 11.7348 49.8712V51.9417C11.7348 54.7226 13.9765 56.985 16.7321 56.985C18.8027 56.985 20.5832 55.7074 21.3404 53.8923H23.2959C24.0495 55.7152 25.8337 57 27.9099 57C29.9862 57 31.7702 55.7152 32.5239 53.8923H34.4725C35.1419 55.4969 36.6112 56.6806 38.3736 56.9337V56.937C38.3805 56.937 38.3876 56.9363 38.3946 56.9363C38.6191 56.9675 38.8479 56.9849 39.0807 56.9849C41.8362 56.9849 44.0782 54.7226 44.0782 51.9416V49.8704H44.0783ZM38.9399 41.1975C41.1399 41.1975 43.0247 44.0355 43.0247 46.3589C43.0247 46.3614 43.0245 46.3642 43.0245 46.3668H34.8553C34.8553 46.3642 34.8551 46.3614 34.8551 46.3589C34.8551 44.0356 36.74 41.1975 38.9399 41.1975ZM33.386 38.081C34.8833 38.081 36.1513 39.3627 36.8436 40.7548C36.2706 41.1061 35.7346 41.5995 35.2605 42.2257C34.3469 43.4319 33.8015 44.977 33.8015 46.3589C33.8015 46.3614 33.8017 46.3642 33.8018 46.3668H33.0342C33.0342 46.3642 33.0344 46.3614 33.0344 46.3589C33.0344 44.9772 32.4889 43.432 31.5751 42.2257C31.0874 41.5817 30.5343 41.0778 29.9429 40.7251C30.6387 39.3471 31.9021 38.081 33.386 38.081ZM27.896 41.1975C30.096 41.1975 31.9807 44.0355 31.9807 46.3589C31.9807 46.3614 31.9805 46.3642 31.9805 46.3668H23.8113C23.8113 46.3642 23.8111 46.3614 23.8111 46.3589C23.8112 44.0356 25.6962 41.1975 27.896 41.1975ZM22.3189 38.081C23.8203 38.081 25.0903 39.3684 25.7821 40.7657C25.2157 41.1162 24.6859 41.606 24.2166 42.2257C23.3031 43.4319 22.7577 44.977 22.7577 46.3589C22.7577 46.3614 22.7579 46.3642 22.7579 46.3668H22.0119C22.0119 46.3642 22.0121 46.3614 22.0121 46.3589C22.0121 44.9772 21.4666 43.432 20.5527 42.2257C20.0558 41.5696 19.4912 41.0583 18.887 40.7047C19.5834 39.3363 20.8425 38.081 22.3189 38.081ZM16.8737 41.1975C19.0736 41.1975 20.9584 44.0355 20.9584 46.3589C20.9584 46.3614 20.9582 46.3642 20.9582 46.3668H12.7891C12.7891 46.3642 12.7889 46.3614 12.7889 46.3589C12.7889 44.0356 14.6738 41.1975 16.8737 41.1975ZM12.7885 51.9419V49.8715H13.4486V51.9243C13.4486 53.1328 13.7863 54.2427 14.3477 55.1093C13.4009 54.3815 12.7885 53.2328 12.7885 51.9419ZM21.6506 52.8293C21.7015 52.5411 21.7296 52.2449 21.7296 51.9419V51.6781C21.7296 51.3508 21.9934 51.0846 22.3246 51.0846C22.6488 51.0846 22.9126 51.3508 22.9126 51.6781V51.9568C22.9126 52.2545 22.9398 52.5456 22.989 52.8293H21.6506ZM32.8309 52.8293C32.8802 52.5456 32.9074 52.2545 32.9074 51.9568V51.6781C32.9074 51.3508 33.1712 51.0846 33.4954 51.0846C33.8197 51.0846 34.0835 51.3508 34.0835 51.6781V51.9419C34.0835 52.2449 34.1116 52.5411 34.1625 52.8293H32.8309ZM41.2576 51.9243C41.2576 54.0653 40.0072 55.8125 38.4542 55.8712C36.5765 55.5673 35.1371 53.9212 35.1371 51.9419V51.6781C35.1371 50.7645 34.4007 50.0213 33.4955 50.0213C32.5903 50.0213 31.854 50.7645 31.854 51.6781V51.9568C31.854 54.1515 30.0848 55.937 27.9101 55.937C25.7355 55.937 23.9663 54.1515 23.9663 51.9568V51.6781C23.9663 50.7645 23.2299 50.0213 22.3177 50.0213C21.4126 50.0213 20.6762 50.7645 20.6762 51.6781V51.9419C20.6762 53.9243 19.2325 55.5724 17.3505 55.8728C15.7767 55.8464 14.5023 54.0858 14.5023 51.9243V49.8715H41.2577V51.9243H41.2576ZM43.0247 51.9419C43.0247 53.2807 42.3656 54.4663 41.3587 55.1881C41.9516 54.3103 42.3112 53.1702 42.3112 51.9243V49.8715H43.0247V51.9419ZM11.7366 48.8083C11.3601 48.8083 11.0539 48.4991 11.0539 48.1191C11.0539 47.7392 11.3601 47.4302 11.7366 47.4302H44.0555C44.432 47.4302 44.7384 47.7392 44.7384 48.1191C44.7384 48.4991 44.432 48.8083 44.0555 48.8083H11.7366Z"/>
</mask>
<path d="M44.0783 49.8704C45.0252 49.8579 45.7919 49.0776 45.7919 48.119C45.7919 47.1604 45.0251 46.3802 44.0779 46.3678C44.0779 46.3648 44.0783 46.3617 44.0783 46.3587C44.0783 44.9771 43.5327 43.4319 42.6189 42.2256C41.5975 40.8769 40.2908 40.1342 38.9398 40.1342C38.5556 40.1342 38.1753 40.1963 37.8039 40.3133C36.8273 38.2954 35.1353 37.0177 33.3859 37.0177C31.6454 37.0177 29.9558 38.289 28.9761 40.2959C28.6224 40.1902 28.2609 40.1342 27.896 40.1342C27.5048 40.1342 27.1177 40.1984 26.7399 40.3194C25.7635 38.2977 24.0706 37.0176 22.3188 37.0176C20.5825 37.0176 18.8953 38.2843 17.9156 40.284C17.5741 40.1857 17.2254 40.1342 16.8736 40.1342C15.5222 40.1342 14.2155 40.8769 13.1941 42.2256C12.2806 43.4318 11.7352 44.9769 11.7352 46.3587C11.7352 46.3614 11.7354 46.3641 11.7354 46.3667C10.7785 46.3674 10 47.1531 10 48.1189C10 49.0847 10.778 49.8704 11.7348 49.8712V51.9417C11.7348 54.7226 13.9765 56.985 16.7321 56.985C18.8027 56.985 20.5832 55.7074 21.3404 53.8923H23.2959C24.0495 55.7152 25.8337 57 27.9099 57C29.9862 57 31.7702 55.7152 32.5239 53.8923H34.4725C35.1419 55.4969 36.6112 56.6806 38.3736 56.9337V56.937C38.3805 56.937 38.3876 56.9363 38.3946 56.9363C38.6191 56.9675 38.8479 56.9849 39.0807 56.9849C41.8362 56.9849 44.0782 54.7226 44.0782 51.9416V49.8704H44.0783ZM38.9399 41.1975C41.1399 41.1975 43.0247 44.0355 43.0247 46.3589C43.0247 46.3614 43.0245 46.3642 43.0245 46.3668H34.8553C34.8553 46.3642 34.8551 46.3614 34.8551 46.3589C34.8551 44.0356 36.74 41.1975 38.9399 41.1975ZM33.386 38.081C34.8833 38.081 36.1513 39.3627 36.8436 40.7548C36.2706 41.1061 35.7346 41.5995 35.2605 42.2257C34.3469 43.4319 33.8015 44.977 33.8015 46.3589C33.8015 46.3614 33.8017 46.3642 33.8018 46.3668H33.0342C33.0342 46.3642 33.0344 46.3614 33.0344 46.3589C33.0344 44.9772 32.4889 43.432 31.5751 42.2257C31.0874 41.5817 30.5343 41.0778 29.9429 40.7251C30.6387 39.3471 31.9021 38.081 33.386 38.081ZM27.896 41.1975C30.096 41.1975 31.9807 44.0355 31.9807 46.3589C31.9807 46.3614 31.9805 46.3642 31.9805 46.3668H23.8113C23.8113 46.3642 23.8111 46.3614 23.8111 46.3589C23.8112 44.0356 25.6962 41.1975 27.896 41.1975ZM22.3189 38.081C23.8203 38.081 25.0903 39.3684 25.7821 40.7657C25.2157 41.1162 24.6859 41.606 24.2166 42.2257C23.3031 43.4319 22.7577 44.977 22.7577 46.3589C22.7577 46.3614 22.7579 46.3642 22.7579 46.3668H22.0119C22.0119 46.3642 22.0121 46.3614 22.0121 46.3589C22.0121 44.9772 21.4666 43.432 20.5527 42.2257C20.0558 41.5696 19.4912 41.0583 18.887 40.7047C19.5834 39.3363 20.8425 38.081 22.3189 38.081ZM16.8737 41.1975C19.0736 41.1975 20.9584 44.0355 20.9584 46.3589C20.9584 46.3614 20.9582 46.3642 20.9582 46.3668H12.7891C12.7891 46.3642 12.7889 46.3614 12.7889 46.3589C12.7889 44.0356 14.6738 41.1975 16.8737 41.1975ZM12.7885 51.9419V49.8715H13.4486V51.9243C13.4486 53.1328 13.7863 54.2427 14.3477 55.1093C13.4009 54.3815 12.7885 53.2328 12.7885 51.9419ZM21.6506 52.8293C21.7015 52.5411 21.7296 52.2449 21.7296 51.9419V51.6781C21.7296 51.3508 21.9934 51.0846 22.3246 51.0846C22.6488 51.0846 22.9126 51.3508 22.9126 51.6781V51.9568C22.9126 52.2545 22.9398 52.5456 22.989 52.8293H21.6506ZM32.8309 52.8293C32.8802 52.5456 32.9074 52.2545 32.9074 51.9568V51.6781C32.9074 51.3508 33.1712 51.0846 33.4954 51.0846C33.8197 51.0846 34.0835 51.3508 34.0835 51.6781V51.9419C34.0835 52.2449 34.1116 52.5411 34.1625 52.8293H32.8309ZM41.2576 51.9243C41.2576 54.0653 40.0072 55.8125 38.4542 55.8712C36.5765 55.5673 35.1371 53.9212 35.1371 51.9419V51.6781C35.1371 50.7645 34.4007 50.0213 33.4955 50.0213C32.5903 50.0213 31.854 50.7645 31.854 51.6781V51.9568C31.854 54.1515 30.0848 55.937 27.9101 55.937C25.7355 55.937 23.9663 54.1515 23.9663 51.9568V51.6781C23.9663 50.7645 23.2299 50.0213 22.3177 50.0213C21.4126 50.0213 20.6762 50.7645 20.6762 51.6781V51.9419C20.6762 53.9243 19.2325 55.5724 17.3505 55.8728C15.7767 55.8464 14.5023 54.0858 14.5023 51.9243V49.8715H41.2577V51.9243H41.2576ZM43.0247 51.9419C43.0247 53.2807 42.3656 54.4663 41.3587 55.1881C41.9516 54.3103 42.3112 53.1702 42.3112 51.9243V49.8715H43.0247V51.9419ZM11.7366 48.8083C11.3601 48.8083 11.0539 48.4991 11.0539 48.1191C11.0539 47.7392 11.3601 47.4302 11.7366 47.4302H44.0555C44.432 47.4302 44.7384 47.7392 44.7384 48.1191C44.7384 48.4991 44.432 48.8083 44.0555 48.8083H11.7366Z" fill="black" stroke="black" stroke-width="8" mask="url(#path-4-inside-2_193_738)"/>
<path d="M16.8735 32.666C16.5122 32.666 16.2529 32.3776 16.2529 32.0582C16.2529 31.7388 16.5122 31.4504 16.8735 31.4504C16.8736 31.4504 16.8736 31.4504 16.8736 31.4504C17.2347 31.4504 17.494 31.7386 17.494 32.0582C17.494 32.3778 17.2347 32.666 16.8736 32.666C16.8736 32.666 16.8736 32.666 16.8735 32.666ZM16.5477 32.0582C16.5477 31.8769 16.6938 31.7293 16.8735 31.7292C16.8736 31.7292 16.8736 31.7292 16.8736 31.7292C17.0532 31.7292 17.1995 31.8768 17.1995 32.0582C17.1995 32.2396 17.0532 32.3872 16.8736 32.3872C16.8736 32.3872 16.8736 32.3872 16.8735 32.3872C16.6937 32.3871 16.5477 32.2396 16.5477 32.0582Z" fill="black" stroke="black" stroke-width="4"/>
<path d="M38.3193 32.0582C38.3193 31.7387 38.5787 31.4504 38.9398 31.4504C39.3009 31.4504 39.5603 31.7385 39.5603 32.0582C39.5603 32.3779 39.3009 32.666 38.9398 32.666C38.5787 32.666 38.3193 32.3777 38.3193 32.0582ZM38.9398 31.7292C39.1195 31.7292 39.2658 31.8768 39.2658 32.0582C39.2658 32.2396 39.1195 32.3872 38.9398 32.3872C38.7602 32.3872 38.6138 32.2396 38.6138 32.0582C38.6138 31.8768 38.7602 31.7292 38.9398 31.7292Z" fill="black" stroke="black" stroke-width="4"/>
<mask id="path-7-inside-3_193_738" fill="white">
<path d="M36.3014 31.584H34.2423V32.6472H36.3014V31.584Z"/>
</mask>
<path d="M36.3014 31.584H34.2423V32.6472H36.3014V31.584Z" fill="black"/>
<path d="M34.2423 31.584V27.584H30.2423V31.584H34.2423ZM36.3014 31.584H40.3014V27.584H36.3014V31.584ZM36.3014 32.6472V36.6472H40.3014V32.6472H36.3014ZM34.2423 32.6472H30.2423V36.6472H34.2423V32.6472ZM34.2423 35.584H36.3014V27.584H34.2423V35.584ZM32.3014 31.584V32.6472H40.3014V31.584H32.3014ZM36.3014 28.6472H34.2423V36.6472H36.3014V28.6472ZM38.2423 32.6472V31.584H30.2423V32.6472H38.2423Z" fill="black" mask="url(#path-7-inside-3_193_738)"/>
<mask id="path-9-inside-4_193_738" fill="white">
<path d="M33.0124 31.584H19.5861V32.6472H33.0124V31.584Z"/>
</mask>
<path d="M33.0124 31.584H19.5861V32.6472H33.0124V31.584Z" fill="black"/>
<path d="M19.5861 31.584V27.584H15.5861V31.584H19.5861ZM33.0124 31.584H37.0124V27.584H33.0124V31.584ZM33.0124 32.6472V36.6472H37.0124V32.6472H33.0124ZM19.5861 32.6472H15.5861V36.6472H19.5861V32.6472ZM19.5861 35.584H33.0124V27.584H19.5861V35.584ZM29.0124 31.584V32.6472H37.0124V31.584H29.0124ZM33.0124 28.6472H19.5861V36.6472H33.0124V28.6472ZM23.5861 32.6472V31.584H15.5861V32.6472H23.5861Z" fill="black" mask="url(#path-9-inside-4_193_738)"/>
<mask id="path-11-inside-5_193_738" fill="white">
<path d="M56.451 47.0293H55.3975V48.6955H56.451V47.0293Z"/>
</mask>
<path d="M56.451 47.0293H55.3975V48.6955H56.451V47.0293Z" fill="black"/>
<path d="M55.3975 47.0293V43.0293H51.3975V47.0293H55.3975ZM56.451 47.0293H60.451V43.0293H56.451V47.0293ZM56.451 48.6955V52.6955H60.451V48.6955H56.451ZM55.3975 48.6955H51.3975V52.6955H55.3975V48.6955ZM55.3975 51.0293H56.451V43.0293H55.3975V51.0293ZM52.451 47.0293V48.6955H60.451V47.0293H52.451ZM56.451 44.6955H55.3975V52.6955H56.451V44.6955ZM59.3975 48.6955V47.0293H51.3975V48.6955H59.3975Z" fill="black" mask="url(#path-11-inside-5_193_738)"/>
<mask id="path-13-inside-6_193_738" fill="white">
<path d="M56.451 31.9824H55.3975V45.5102H56.451V31.9824Z"/>
</mask>
<path d="M56.451 31.9824H55.3975V45.5102H56.451V31.9824Z" fill="black"/>
<path d="M55.3975 31.9824V27.9824H51.3975V31.9824H55.3975ZM56.451 31.9824H60.451V27.9824H56.451V31.9824ZM56.451 45.5102V49.5102H60.451V45.5102H56.451ZM55.3975 45.5102H51.3975V49.5102H55.3975V45.5102ZM55.3975 35.9824H56.451V27.9824H55.3975V35.9824ZM52.451 31.9824V45.5102H60.451V31.9824H52.451ZM56.451 41.5102H55.3975V49.5102H56.451V41.5102ZM59.3975 45.5102V31.9824H51.3975V45.5102H59.3975Z" fill="black" mask="url(#path-13-inside-6_193_738)"/>
</svg>
