<svg width="115" height="215" viewBox="0 0 115 215" fill="none" xmlns="http://www.w3.org/2000/svg">
<path d="M16.4284 215H8.21416C5.946 215 4.10681 213.34 4.10681 211.293V203.879H20.5352V211.293C20.5357 213.34 18.6965 215 16.4284 215Z" fill="#AFB9D2"/>
<path d="M106.785 215H98.5711C96.3029 215 94.4637 213.34 94.4637 211.293V203.879H110.892V211.293C110.893 213.34 109.053 215 106.785 215Z" fill="#AFB9D2"/>
<path d="M106.786 207.586H8.21422C3.67744 207.586 0 204.267 0 200.172V7.41372C0 3.31906 3.67744 0 8.21422 0H106.786C111.323 0 115 3.31906 115 7.41372V200.172C115 204.267 111.323 207.586 106.786 207.586Z" fill="#00D7D7"/>
<path d="M115 66.7246H0V74.1383H115V66.7246Z" fill="#00BEBE"/>
<path d="M102.678 59.3106H69.821C67.5528 59.3106 65.7136 57.6507 65.7136 55.6036C65.7136 53.5564 67.5528 51.8965 69.821 51.8965H102.678C104.946 51.8965 106.786 53.5564 106.786 55.6036C106.786 57.6511 104.946 59.3106 102.678 59.3106Z" fill="#E4EAF6"/>
<path d="M69.8213 81.5527H102.679C104.947 81.5527 106.786 83.2127 106.786 85.2598C106.786 87.3069 104.947 88.9669 102.679 88.9669H69.8213C67.5532 88.9669 65.714 87.3069 65.714 85.2598C65.714 83.2123 67.5532 81.5527 69.8213 81.5527Z" fill="#E4EAF6"/>
<path d="M0 200.173C0 204.267 3.6779 207.586 8.21422 207.586H106.786C111.322 207.586 115 204.267 115 200.173V192.759H0V200.173Z" fill="#00BEBE"/>
</svg>
