<svg width="48" height="44" viewBox="0 0 48 44" fill="none" xmlns="http://www.w3.org/2000/svg">
<path d="M35.682 34.201C35.8819 34.5562 35.7633 35.0103 35.4171 35.2154L34.5991 35.6999C34.4851 35.7675 34.3607 35.7995 34.2378 35.7995C33.9877 35.7995 33.7444 35.6664 33.6104 35.4282C33.4105 35.073 33.5291 34.6189 33.8753 34.4138L34.6933 33.9293C35.0395 33.7242 35.4822 33.8459 35.682 34.201ZM35.4172 31.1092L34.5992 30.6246C34.253 30.4196 33.8105 30.5412 33.6104 30.8964C33.4105 31.2515 33.5291 31.7057 33.8753 31.9108L34.6933 32.3954C34.8074 32.463 34.9317 32.495 35.0546 32.495C35.3047 32.495 35.5479 32.3619 35.682 32.1237C35.8819 31.7685 35.7634 31.3143 35.4172 31.1092ZM27.9093 40.647C24.1395 42.4855 19.9121 42.9769 15.8809 42.0666C18.9765 41.9573 22.0114 41.1034 24.781 39.5481C25.3222 39.2443 25.8573 38.91 26.3714 38.5544C26.7029 38.3251 26.7904 37.8637 26.5669 37.5236C26.3435 37.1835 25.8937 37.0937 25.5622 37.3229C25.0849 37.653 24.5882 37.9633 24.0859 38.2454C21.2962 39.8119 18.2165 40.6105 15.0928 40.5931C17.7457 39.1169 20.1472 37.1388 22.0991 34.8124C24.39 32.0815 26.0519 28.9418 27.0385 25.4805C28.0262 22.0167 28.2757 18.4527 27.7803 14.8877C27.4354 12.4024 26.7307 9.98185 25.6857 7.69226C25.6403 7.57112 25.5644 7.46356 25.4649 7.38103L21.7303 4.28907C21.7116 4.25714 21.7218 4.12327 21.807 4.04021L22.5653 3.30106L22.8591 3.60465C23.1408 3.89552 23.5991 3.89711 23.8827 3.60815C24.1663 3.31909 24.1679 2.84895 23.8861 2.55809L23.6148 2.27794L24.3499 1.56138C24.4352 1.47821 24.5658 1.47461 24.5946 1.49423L27.6205 5.76843C27.6918 5.86921 27.7867 5.95004 27.8965 6.00329C31.468 7.73713 34.3688 10.5519 36.2853 14.1436C37.3073 16.059 38.001 18.1164 38.3471 20.2589C38.4124 20.6635 38.7851 20.9375 39.1795 20.8701C39.5738 20.8031 39.8406 20.4208 39.7753 20.0162C39.4026 17.7086 38.6555 15.4927 37.5551 13.4306C35.5211 9.61864 32.4565 6.61854 28.6842 4.74361L25.7661 0.621634C25.5149 0.266909 25.133 0.0486004 24.6906 0.00701779C24.207 -0.0385957 23.7063 0.140146 23.3528 0.484899L20.8097 2.96384C20.4562 3.30859 20.2569 3.81204 20.2766 4.3105C20.2946 4.76589 20.4877 5.16824 20.8201 5.44341L24.4219 8.42611C25.3801 10.5517 26.0276 12.7952 26.3472 15.0975C26.3861 15.3775 26.4202 15.6574 26.4493 15.9375C26.0125 16.8957 25.504 17.8238 24.9366 18.6986C23.3113 21.2037 21.2225 23.2829 18.728 24.8782C16.2352 26.4726 13.4963 27.4811 10.5873 27.8754C7.70592 28.2658 4.70108 28.0164 1.89726 27.1545C1.52026 27.0384 1.12144 27.0798 0.774733 27.2715C0.428029 27.463 0.1748 27.7816 0.0616787 28.1685C-0.0687101 28.6142 0.0103918 29.1017 0.272824 29.4803L0.617253 30.0467C0.635452 30.0791 0.654891 30.111 0.675468 30.1421C3.21603 34.2927 7.19305 37.1917 11.876 38.3058C12.2643 38.3981 12.6592 38.4782 13.0501 38.5439C13.4447 38.6101 13.8168 38.3358 13.8813 37.931C13.9459 37.5263 13.6785 37.1445 13.2839 37.0782C12.9242 37.0178 12.5604 36.9441 12.2029 36.8591C8.44865 35.9659 5.1881 33.8265 2.86602 30.7654C4.89186 32.3762 7.24299 33.5228 9.79183 34.1293C13.0693 34.9092 16.4691 34.7363 19.6235 33.6292C20.0018 33.4965 20.2034 33.0743 20.074 32.6863C19.9447 32.2983 19.5329 32.0915 19.1549 32.2241C16.2572 33.2411 13.1326 33.3997 10.119 32.6828C7.47151 32.0528 5.05657 30.7895 3.04346 28.9938C5.5802 29.5703 8.22396 29.6938 10.777 29.3478C13.892 28.9255 16.8249 27.8456 19.494 26.1385C22.1648 24.4304 24.4014 22.2042 26.1418 19.5214C26.2907 19.2918 26.4359 19.0587 26.577 18.8227C26.5438 20.9249 26.2341 23.013 25.6492 25.0639C24.7209 28.3207 23.1574 31.2747 21.0022 33.8439C18.8678 36.3877 16.1615 38.4899 13.1766 39.9229C12.7977 40.1045 12.5105 40.4267 12.3678 40.8299C12.2252 41.2331 12.2441 41.6691 12.4209 42.0575C12.625 42.5061 13.0251 42.8354 13.4956 42.9443C13.4956 42.9443 14.2767 43.18 14.3149 43.1898C16.1357 43.7296 18.0065 43.9973 19.8736 43.9973C22.84 43.9973 25.7973 43.3216 28.5309 41.9884C28.892 41.8124 29.0455 41.3694 28.8738 40.9991C28.7021 40.6284 28.2703 40.471 27.9093 40.647ZM31.7109 11.5078C31.3603 11.7047 31.2316 12.156 31.4237 12.5157C32.7769 15.0514 33.5611 17.9065 33.6915 20.7723C33.7095 21.1702 34.0297 21.4803 34.4139 21.4803C34.4253 21.4803 34.4368 21.4801 34.4482 21.4795C34.8476 21.4603 35.1561 21.1128 35.1375 20.7032C34.9971 17.6131 34.1519 14.5352 32.6935 11.8026C32.5014 11.4429 32.0616 11.3109 31.7109 11.5078ZM37.4362 35.2401C37.0365 35.2401 36.7124 35.5725 36.7124 35.9826V36.9518C36.7124 37.3619 37.0365 37.6943 37.4362 37.6943C37.836 37.6943 38.16 37.3619 38.16 36.9518V35.9826C38.16 35.5725 37.8359 35.2401 37.4362 35.2401ZM40.9968 34.4139L40.1787 33.9295C39.8328 33.7247 39.3899 33.8461 39.19 34.2014C38.9901 34.5565 39.1088 35.0106 39.455 35.2157L40.2731 35.7001C40.3871 35.7676 40.5116 35.7996 40.6343 35.7996C40.8844 35.7996 41.1278 35.6665 41.2619 35.4283C41.4616 35.0731 41.343 34.619 40.9968 34.4139ZM44.6621 33.1624C44.6621 37.25 41.4205 40.5755 37.436 40.5755C33.4516 40.5755 30.21 37.2499 30.21 33.1624C30.21 29.0749 33.4516 25.7494 37.436 25.7494C41.4205 25.7494 44.6621 29.0748 44.6621 33.1624ZM43.2145 33.1624C43.2145 29.8937 40.6223 27.2345 37.436 27.2345C34.2498 27.2345 31.6577 29.8937 31.6577 33.1624C31.6577 36.4311 34.2498 39.0904 37.436 39.0904C40.6223 39.0904 43.2145 36.4311 43.2145 33.1624ZM37.4362 28.6306C37.0365 28.6306 36.7124 28.963 36.7124 29.3731V30.3421C36.7124 30.7522 37.0365 31.0847 37.4362 31.0847C37.836 31.0847 38.16 30.7522 38.16 30.3421V29.3731C38.16 28.963 37.8359 28.6306 37.4362 28.6306ZM48 33.1624C48 39.1382 43.261 44 37.4359 44C31.611 44 26.872 39.1382 26.872 33.1624C26.872 27.1866 31.611 22.3249 37.4359 22.3249C43.261 22.3249 48 27.1865 48 33.1624ZM46.5524 33.1624C46.5524 28.0055 42.4628 23.81 37.4359 23.81C32.4092 23.81 28.3197 28.0055 28.3197 33.1624C28.3197 38.3194 32.4092 42.5149 37.4359 42.5149C42.4628 42.5148 46.5524 38.3194 46.5524 33.1624ZM40.273 30.6244L39.4549 31.109C39.1087 31.314 38.9901 31.7681 39.19 32.1233C39.324 32.3615 39.5673 32.4947 39.8176 32.4947C39.9404 32.4947 40.0648 32.4626 40.1787 32.3951L40.9968 31.9105C41.343 31.7055 41.4616 31.2513 41.2618 30.8962C41.0619 30.541 40.6191 30.4194 40.273 30.6244Z" fill="black"/>
</svg>
