<svg width="70" height="70" viewBox="0 0 70 70" fill="none" xmlns="http://www.w3.org/2000/svg">
<rect x="2" y="2" width="66" height="66" rx="18" fill="#F5F5F5" stroke="#2FC6B7" stroke-width="4"/>
<path d="M46.682 47.201C46.8819 47.5562 46.7633 48.0103 46.4171 48.2154L45.5991 48.6999C45.4851 48.7675 45.3607 48.7995 45.2378 48.7995C44.9877 48.7995 44.7444 48.6664 44.6104 48.4282C44.4105 48.073 44.5291 47.6189 44.8753 47.4138L45.6933 46.9293C46.0395 46.7242 46.4822 46.8459 46.682 47.201ZM46.4172 44.1092L45.5992 43.6246C45.253 43.4196 44.8105 43.5412 44.6104 43.8964C44.4105 44.2515 44.5291 44.7057 44.8753 44.9108L45.6933 45.3954C45.8074 45.463 45.9317 45.495 46.0546 45.495C46.3047 45.495 46.5479 45.3619 46.682 45.1237C46.8819 44.7685 46.7634 44.3143 46.4172 44.1092ZM38.9093 53.647C35.1395 55.4855 30.9121 55.9769 26.8809 55.0666C29.9765 54.9573 33.0114 54.1034 35.781 52.5481C36.3222 52.2443 36.8573 51.91 37.3714 51.5544C37.7029 51.3251 37.7904 50.8637 37.5669 50.5236C37.3435 50.1835 36.8937 50.0937 36.5622 50.3229C36.0849 50.653 35.5882 50.9633 35.0859 51.2454C32.2962 52.8119 29.2165 53.6105 26.0928 53.5931C28.7457 52.1169 31.1472 50.1388 33.0991 47.8124C35.39 45.0815 37.0519 41.9418 38.0385 38.4805C39.0262 35.0167 39.2757 31.4527 38.7803 27.8877C38.4354 25.4024 37.7307 22.9818 36.6857 20.6923C36.6403 20.5711 36.5644 20.4636 36.4649 20.381L32.7303 17.2891C32.7116 17.2571 32.7218 17.1233 32.807 17.0402L33.5653 16.3011L33.8591 16.6047C34.1408 16.8955 34.5991 16.8971 34.8827 16.6082C35.1663 16.3191 35.1679 15.849 34.8861 15.5581L34.6148 15.2779L35.3499 14.5614C35.4352 14.4782 35.5658 14.4746 35.5946 14.4942L38.6205 18.7684C38.6918 18.8692 38.7867 18.95 38.8965 19.0033C42.468 20.7371 45.3688 23.5519 47.2853 27.1436C48.3073 29.059 49.001 31.1164 49.3471 33.2589C49.4124 33.6635 49.7851 33.9375 50.1795 33.8701C50.5738 33.8031 50.8406 33.4208 50.7753 33.0162C50.4026 30.7086 49.6555 28.4927 48.5551 26.4306C46.5211 22.6186 43.4565 19.6185 39.6842 17.7436L36.7661 13.6216C36.5149 13.2669 36.133 13.0486 35.6906 13.007C35.207 12.9614 34.7063 13.1401 34.3528 13.4849L31.8097 15.9638C31.4562 16.3086 31.2569 16.812 31.2766 17.3105C31.2946 17.7659 31.4877 18.1682 31.8201 18.4434L35.4219 21.4261C36.3801 23.5517 37.0276 25.7952 37.3472 28.0975C37.3861 28.3775 37.4202 28.6574 37.4493 28.9375C37.0125 29.8957 36.504 30.8238 35.9366 31.6986C34.3113 34.2037 32.2225 36.2829 29.728 37.8782C27.2352 39.4726 24.4963 40.4811 21.5873 40.8754C18.7059 41.2658 15.7011 41.0164 12.8973 40.1545C12.5203 40.0384 12.1214 40.0798 11.7747 40.2715C11.428 40.463 11.1748 40.7816 11.0617 41.1685C10.9313 41.6142 11.0104 42.1017 11.2728 42.4803L11.6173 43.0467C11.6355 43.0791 11.6549 43.111 11.6755 43.1421C14.216 47.2927 18.193 50.1917 22.876 51.3058C23.2643 51.3981 23.6592 51.4782 24.0501 51.5439C24.4447 51.6101 24.8168 51.3358 24.8813 50.931C24.9459 50.5263 24.6785 50.1445 24.2839 50.0782C23.9242 50.0178 23.5604 49.9441 23.2029 49.8591C19.4486 48.9659 16.1881 46.8265 13.866 43.7654C15.8919 45.3762 18.243 46.5228 20.7918 47.1293C24.0693 47.9092 27.4691 47.7363 30.6235 46.6292C31.0018 46.4965 31.2034 46.0743 31.074 45.6863C30.9447 45.2983 30.5329 45.0915 30.1549 45.2241C27.2572 46.2411 24.1326 46.3997 21.119 45.6828C18.4715 45.0528 16.0566 43.7895 14.0435 41.9938C16.5802 42.5703 19.224 42.6938 21.777 42.3478C24.892 41.9255 27.8249 40.8456 30.494 39.1385C33.1648 37.4304 35.4014 35.2042 37.1418 32.5214C37.2907 32.2918 37.4359 32.0587 37.577 31.8227C37.5438 33.9249 37.2341 36.013 36.6492 38.0639C35.7209 41.3207 34.1574 44.2747 32.0022 46.8439C29.8678 49.3877 27.1615 51.4899 24.1766 52.9229C23.7977 53.1045 23.5105 53.4267 23.3678 53.8299C23.2252 54.2331 23.2441 54.6691 23.4209 55.0575C23.625 55.5061 24.0251 55.8354 24.4956 55.9443C24.4956 55.9443 25.2767 56.18 25.3149 56.1898C27.1357 56.7296 29.0065 56.9973 30.8736 56.9973C33.84 56.9973 36.7973 56.3216 39.5309 54.9884C39.892 54.8124 40.0455 54.3694 39.8738 53.9991C39.7021 53.6284 39.2703 53.471 38.9093 53.647ZM42.7109 24.5078C42.3603 24.7047 42.2316 25.156 42.4237 25.5157C43.7769 28.0514 44.5611 30.9065 44.6915 33.7723C44.7095 34.1702 45.0297 34.4803 45.4139 34.4803C45.4253 34.4803 45.4368 34.4801 45.4482 34.4795C45.8476 34.4603 46.1561 34.1128 46.1375 33.7032C45.9971 30.6131 45.1519 27.5352 43.6935 24.8026C43.5014 24.4429 43.0616 24.3109 42.7109 24.5078ZM48.4362 48.2401C48.0365 48.2401 47.7124 48.5725 47.7124 48.9826V49.9518C47.7124 50.3619 48.0365 50.6943 48.4362 50.6943C48.836 50.6943 49.16 50.3619 49.16 49.9518V48.9826C49.16 48.5725 48.8359 48.2401 48.4362 48.2401ZM51.9968 47.4139L51.1787 46.9295C50.8328 46.7247 50.3899 46.8461 50.19 47.2014C49.9901 47.5565 50.1088 48.0106 50.455 48.2157L51.2731 48.7001C51.3871 48.7676 51.5116 48.7996 51.6343 48.7996C51.8844 48.7996 52.1278 48.6665 52.2619 48.4283C52.4616 48.0731 52.343 47.619 51.9968 47.4139ZM55.6621 46.1624C55.6621 50.25 52.4205 53.5755 48.436 53.5755C44.4516 53.5755 41.21 50.2499 41.21 46.1624C41.21 42.0749 44.4516 38.7494 48.436 38.7494C52.4205 38.7494 55.6621 42.0748 55.6621 46.1624ZM54.2145 46.1624C54.2145 42.8937 51.6223 40.2345 48.436 40.2345C45.2498 40.2345 42.6577 42.8937 42.6577 46.1624C42.6577 49.4311 45.2498 52.0904 48.436 52.0904C51.6223 52.0904 54.2145 49.4311 54.2145 46.1624ZM48.4362 41.6306C48.0365 41.6306 47.7124 41.963 47.7124 42.3731V43.3421C47.7124 43.7522 48.0365 44.0847 48.4362 44.0847C48.836 44.0847 49.16 43.7522 49.16 43.3421V42.3731C49.16 41.963 48.8359 41.6306 48.4362 41.6306ZM59 46.1624C59 52.1382 54.261 57 48.4359 57C42.611 57 37.872 52.1382 37.872 46.1624C37.872 40.1866 42.611 35.3249 48.4359 35.3249C54.261 35.3249 59 40.1865 59 46.1624ZM57.5524 46.1624C57.5524 41.0055 53.4628 36.81 48.4359 36.81C43.4092 36.81 39.3197 41.0055 39.3197 46.1624C39.3197 51.3194 43.4092 55.5149 48.4359 55.5149C53.4628 55.5148 57.5524 51.3194 57.5524 46.1624ZM51.273 43.6244L50.4549 44.109C50.1087 44.314 49.9901 44.7681 50.19 45.1233C50.324 45.3615 50.5673 45.4947 50.8176 45.4947C50.9404 45.4947 51.0648 45.4626 51.1787 45.3951L51.9968 44.9105C52.343 44.7055 52.4616 44.2513 52.2618 43.8962C52.0619 43.541 51.6191 43.4194 51.273 43.6244Z" fill="black"/>
</svg>
