<svg width="165" height="215" viewBox="0 0 165 215" fill="none" xmlns="http://www.w3.org/2000/svg">
<path d="M20.3639 78.0992C19.0785 78.0992 17.8198 77.4364 17.0946 76.2323C14.7385 72.3301 10.3372 67.816 5.28356 67.9807C3.1347 67.8631 1.39259 66.3414 1.3312 64.1804C1.26597 62.0116 2.93133 60.2036 5.04949 60.137C13.1346 59.8899 20.0301 66.1531 23.6256 72.1183C24.7384 73.9616 24.1782 76.3774 22.3747 77.5148C21.7492 77.9109 21.0508 78.0992 20.3639 78.0992Z" fill="#436B1C"/>
<path d="M98.9012 25.8761C98.387 18.2363 92.1745 12.1966 84.5691 12.1966C84.546 12.1966 84.5269 12.2006 84.5038 12.2006C84.6381 11.0436 84.5614 9.81997 84.1969 8.54536C83.1685 4.96077 80.0833 2.20761 76.4533 1.76444C73.4756 1.40363 70.7435 2.49391 68.8287 4.42739C67.006 2.74491 64.6192 1.69385 61.9715 1.69385C56.2962 1.69385 51.6992 6.39618 51.6992 12.1927C51.6992 12.2123 51.7031 12.228 51.7031 12.2476C44.8075 12.781 39.3702 18.6599 39.3702 25.8448C39.3702 26.9429 39.5121 28.0057 39.75 29.0293C31.5422 29.3784 24.9882 36.273 24.9882 44.7482C24.9882 47.619 25.7518 50.3016 27.0641 52.6194C24.543 54.7372 22.9314 57.9492 22.9314 61.5456C22.9314 64.8321 24.2936 67.7774 26.4502 69.8756C35.7056 62.1456 45.4292 87.9986 56.8795 108.639C60.6822 115.495 101.768 108.192 105.041 112.452C108.771 109.024 111.18 49.3329 111.284 44.0893C111.445 35.6769 106.219 28.4999 98.9012 25.8761Z" fill="#88C057"/>
<path d="M104.155 104.062L106.891 102.387C111.956 99.2812 118.28 99.2812 123.341 102.387L126.077 104.062C131.142 107.168 137.466 107.168 142.527 104.062L150.259 100.548C151.395 97.3085 152.186 94.9632 152.5 93.9239C159.714 70.2083 164.361 45.2378 164.994 20.3299C165.248 10.3135 157.143 -5.30737 143.678 1.79122C130.444 8.76431 120.966 35.5076 114.304 48.2066C104.842 66.2512 97.359 85.8762 92.0291 105.874C96.0889 106.921 100.456 106.329 104.155 104.062Z" fill="#EEAF4B"/>
<path d="M4.394 100.034L9.55509 103.199C15.4836 106.835 22.8895 106.835 28.8181 103.199L30.1458 102.383C35.2109 99.2771 41.5347 99.2771 46.596 102.383L49.332 104.058C52.3059 105.882 55.7133 106.603 59.0441 106.285C61.4999 98.179 60.6749 88.0448 56.8683 81.1855C44.0673 58.1052 33.4189 62.8076 23.1735 72.828C21.2088 74.7497 18.8067 76.1576 16.1897 76.9224C4.95424 80.205 -3.33805 85.5741 1.37792 100.195C2.21061 99.5752 3.36945 99.4065 4.394 100.034Z" fill="#ED3F32"/>
<path d="M113.898 95.5241C113.491 95.5241 113.073 95.4575 112.666 95.3163C110.659 94.6182 109.585 92.3906 110.268 90.3394C112.827 82.6447 121.046 78.5267 128.564 81.1152C132.09 82.3427 135.931 80.4053 137.128 76.8011C137.808 74.75 139.979 73.644 141.998 74.346C144.005 75.0441 145.079 77.2717 144.396 79.3229C141.84 87.0215 133.629 91.1552 126.1 88.5471C122.577 87.3235 118.736 89.2648 117.535 92.8612C116.987 94.5005 115.494 95.5241 113.898 95.5241Z" fill="#A46F3E"/>
<path d="M122.972 68.1988C122.565 68.1988 122.147 68.1322 121.74 67.991C119.733 67.2929 118.659 65.0653 119.342 63.0141C120.582 59.2844 123.168 56.2685 126.621 54.5272C130.075 52.7859 133.985 52.5231 137.638 53.7899C141.172 55.0213 145.006 53.08 146.203 49.4719C146.882 47.4168 149.062 46.3148 151.068 47.0168C153.075 47.7149 154.15 49.9425 153.467 51.9937C150.911 59.6962 142.699 63.822 135.171 61.2218C133.463 60.6257 131.629 60.7473 130.013 61.563C128.398 62.3788 127.189 63.7867 126.606 65.5359C126.065 67.1713 124.572 68.1988 122.972 68.1988Z" fill="#A46F3E"/>
<path d="M132.052 40.873C131.645 40.873 131.227 40.8063 130.816 40.6651C128.809 39.967 127.735 37.7394 128.418 35.6882C130.659 28.9348 137.869 25.311 144.477 27.5935C145.743 28.0327 147.094 27.9465 148.287 27.3464C149.481 26.7464 150.375 25.7032 150.804 24.4129C151.484 22.3617 153.659 21.2597 155.674 21.9578C157.681 22.6559 158.755 24.8835 158.072 26.9346C156.982 30.2094 154.715 32.8567 151.683 34.3823C148.648 35.9118 145.214 36.1353 142.01 35.0254C139.408 34.1195 136.568 35.551 135.686 38.2139C135.141 39.8454 133.648 40.873 132.052 40.873Z" fill="#A46F3E"/>
<path d="M66.9987 55.2817C63.3725 60.2115 57.6511 66.0473 59.8537 76.354L65.7784 104.062L68.5182 102.387C73.5834 99.2813 79.9071 99.2813 84.9685 102.387L87.7044 104.062C89.93 105.427 92.029 105.878 92.029 105.878C96.0274 90.8845 101.235 76.0991 107.578 62.0352C104.607 54.4425 98.2645 51.9011 93.6598 49.3009C93.633 49.2852 93.6061 49.2695 93.5831 49.2577C90.6706 47.5517 90.4903 43.4769 92.6813 40.8806C93.5447 39.857 93.9438 38.4491 93.6445 37.0372L93.1802 34.8723C92.6698 32.4878 90.3444 30.9661 88.0152 31.4877L64.6963 36.6881C62.3633 37.2097 60.8744 39.5864 61.3848 41.967L61.8491 44.1318C62.156 45.5751 63.1307 46.6928 64.3663 47.238C67.202 48.489 68.9326 51.7246 67.4821 54.5131C67.344 54.7758 67.1828 55.0307 66.9987 55.2817Z" fill="#DAE7EF"/>
<path d="M91.4644 42.7466L65.068 48.6412C62.1555 49.2922 59.2469 47.3862 58.6099 44.4095L58.23 42.6368C57.5931 39.6601 59.458 36.6873 62.3704 36.0363L88.7668 30.1417C91.6793 29.4907 94.5879 31.3967 95.2249 34.3734L95.6048 36.1461C96.2418 39.1267 94.3769 42.0956 91.4644 42.7466Z" fill="white"/>
<path d="M156.966 99.3521L150.27 197.513C149.779 207.313 141.863 215 132.262 215H24.5468C14.946 215 7.02978 207.313 6.53861 197.513L0.00378094 102.572C-0.107499 100.34 2.26008 98.8854 4.1365 100.035L9.29759 103.199C15.2261 106.835 22.632 106.835 28.5606 103.199L29.8883 102.384C34.9534 99.2776 41.2772 99.2776 46.3385 102.384L49.0745 104.062C54.1396 107.168 60.4634 107.168 65.5247 104.062L68.2607 102.384C73.3259 99.2776 79.6497 99.2776 84.711 102.384L87.4469 104.062C92.5121 107.168 98.8359 107.168 103.897 104.062L106.633 102.384C111.698 99.2776 118.022 99.2776 123.083 102.384L125.819 104.062C130.885 107.168 137.208 107.168 142.27 104.062L155.266 98.1598C156.091 97.7833 157.012 98.4305 156.966 99.3521Z" fill="#FBD490"/>
<path d="M46.0466 164.721H19.1859C17.0677 164.721 15.3486 162.968 15.3486 160.799C15.3486 158.631 17.0677 156.877 19.1859 156.877H46.0466C48.1648 156.877 49.8838 158.631 49.8838 160.799C49.8838 162.968 48.1648 164.721 46.0466 164.721Z" fill="#E0B877"/>
<path d="M53.7211 180.409H19.1859C17.0677 180.409 15.3486 178.656 15.3486 176.487C15.3486 174.319 17.0677 172.565 19.1859 172.565H53.7211C55.8392 172.565 57.5583 174.319 57.5583 176.487C57.5583 178.656 55.8392 180.409 53.7211 180.409Z" fill="#E0B877"/>
<path d="M61.3956 196.096H19.1859C17.0677 196.096 15.3486 194.343 15.3486 192.174C15.3486 190.005 17.0677 188.252 19.1859 188.252H61.3956C63.5137 188.252 65.2328 190.005 65.2328 192.174C65.2328 194.343 63.5137 196.096 61.3956 196.096Z" fill="#E0B877"/>
<path d="M84.419 196.096H76.7445C74.6263 196.096 72.9072 194.343 72.9072 192.174C72.9072 190.005 74.6263 188.252 76.7445 188.252H84.419C86.5371 188.252 88.2562 190.005 88.2562 192.174C88.2562 194.343 86.5371 196.096 84.419 196.096Z" fill="#E0B877"/>
</svg>
