<svg width="70" height="70" viewBox="0 0 70 70" fill="none" xmlns="http://www.w3.org/2000/svg">
<rect x="2" y="2" width="66" height="66" rx="18" fill="#F5F5F5" stroke="#2FC6B7" stroke-width="4"/>
<g clip-path="url(#clip0_193_752)">
<path d="M56.567 13.4355C54.7958 11.6643 52.441 10.6885 49.9357 10.6885C47.4303 10.6885 45.0752 11.6643 43.3039 13.4355C43.3031 13.4367 43.3019 13.4379 43.3008 13.439L13.4463 43.2907C13.442 43.2946 13.4377 43.2989 13.4338 43.3029C9.77711 46.9596 9.77711 52.9093 13.4338 56.566C15.2055 58.3368 17.5606 59.3126 20.0656 59.3126C22.5705 59.3126 24.9257 58.3368 26.6969 56.566L56.567 26.6982C60.2237 23.0415 60.2237 17.0918 56.567 13.4355ZM56.014 26.1452L26.1439 56.0126C24.5205 57.636 22.3617 58.5304 20.0656 58.5304C17.7695 58.5304 15.611 57.636 13.9872 56.0126C10.6387 52.664 10.6356 47.2169 13.9786 43.8645C13.9825 43.8605 13.9868 43.8566 13.9907 43.8527L43.8307 14.0128C43.8401 14.0049 43.8491 13.9971 43.8573 13.9885C45.4807 12.3651 47.6395 11.4707 49.9357 11.4707C52.2318 11.4707 54.3906 12.3651 56.014 13.9885C59.3657 17.3398 59.3657 22.7936 56.014 26.1452Z" fill="black"/>
<path d="M14.485 56.5263C14.3008 56.4141 14.0599 56.4724 13.9473 56.6566L12.5292 58.9808L11.0192 57.4708L13.3434 56.0523C13.528 55.9397 13.5863 55.6992 13.4737 55.5146C13.3606 55.33 13.1197 55.2721 12.9359 55.3844L10.1873 57.0618C10.0848 57.1243 10.0172 57.2303 10.0027 57.3492C9.98864 57.4685 10.0297 57.5874 10.1146 57.6722L12.3274 59.885C12.4009 59.959 12.5006 59.9996 12.6039 59.9996C12.6195 59.9996 12.6348 59.9985 12.6504 59.9973C12.7693 59.9832 12.8753 59.9152 12.9379 59.8127L14.6153 57.0641C14.7275 56.8795 14.6692 56.639 14.485 56.5263Z" fill="black"/>
<path d="M59.8854 12.3278L57.6726 10.115C57.5878 10.0301 57.4693 9.99101 57.3496 10.0031C57.2307 10.0172 57.1247 10.0853 57.0621 10.1877L55.3851 12.9363C55.2729 13.1209 55.3311 13.3614 55.5154 13.4741C55.6999 13.5871 55.9405 13.5281 56.0531 13.3438L57.4712 11.0196L58.9808 12.5292L56.6566 13.9473C56.472 14.0599 56.4137 14.3005 56.5263 14.4851C56.5999 14.6059 56.7285 14.6724 56.8603 14.6724C56.9295 14.6724 56.9999 14.654 57.0641 14.6153L59.8127 12.9383C59.9151 12.8757 59.9828 12.7697 59.9973 12.6508C60.0114 12.5316 59.9703 12.4127 59.8854 12.3278Z" fill="black"/>
<path d="M46.8769 30.3135L36.9209 20.3579C36.768 20.2049 36.5208 20.2049 36.3679 20.3579C36.215 20.5108 36.215 20.7579 36.3679 20.9109L46.0474 30.59L30.5903 46.0472L20.9107 36.368C20.7578 36.2151 20.5106 36.2151 20.3577 36.368C20.2048 36.5209 20.2048 36.7681 20.3577 36.921L30.3138 46.8767C30.39 46.9529 30.4902 46.9912 30.5903 46.9912C30.69 46.9912 30.7901 46.9529 30.8668 46.8767L46.8769 30.8665C46.9505 30.7934 46.9915 30.6936 46.9915 30.59C46.9915 30.4864 46.9505 30.387 46.8769 30.3135Z" fill="black"/>
<path d="M55.1837 14.8186C52.299 11.9343 47.5984 11.926 44.6934 14.8115L44.9594 15.0986L45.2562 15.3551C47.8448 12.7837 52.0503 12.7915 54.6307 15.3716C55.883 16.6235 56.5725 18.2911 56.5725 20.067C56.5725 21.843 55.883 23.5102 54.6307 24.7625L24.7606 54.6298C23.5083 55.8821 21.8407 56.5716 20.0648 56.5716C18.2892 56.5716 16.6216 55.8821 15.3693 54.6298C12.7873 52.0478 12.7818 47.8408 15.3564 45.2518C15.3623 45.2463 15.3673 45.2409 15.3724 45.235L15.3732 45.2358L42.5146 18.0963C42.6676 17.9434 42.6676 17.6962 42.5146 17.5433C42.3617 17.3904 42.1145 17.3904 41.9616 17.5433L14.8116 44.6906C14.8085 44.6937 14.8053 44.6968 14.8022 44.7C11.9242 47.5941 11.9304 52.2966 14.8167 55.1828C16.2164 56.5829 18.0804 57.3538 20.0651 57.3538C22.0503 57.3538 23.9143 56.5829 25.3136 55.1828L55.1837 25.3155C56.5838 23.9158 57.3546 22.0518 57.3546 20.067C57.3546 18.0822 56.5838 16.2183 55.1837 14.8186Z" fill="black"/>
</g>
<defs>
<clipPath id="clip0_193_752">
<rect width="50" height="50" fill="white" transform="translate(10 10)"/>
</clipPath>
</defs>
</svg>
