<svg width="50" height="50" viewBox="0 0 50 50" fill="none" xmlns="http://www.w3.org/2000/svg">
<g clip-path="url(#clip0_229_10646)">
<path d="M46.5669 3.43502C44.7956 1.66376 42.4409 0.687988 39.9355 0.687988C37.4302 0.687988 35.075 1.66376 33.3038 3.43502C33.303 3.43619 33.3018 3.43737 33.3006 3.43854L3.44621 33.2902C3.44191 33.2942 3.43761 33.2985 3.4337 33.3024C-0.223017 36.9591 -0.223017 42.9088 3.4337 46.5655C5.20535 48.3363 7.56051 49.3121 10.0655 49.3121C12.5704 49.3121 14.9256 48.3363 16.6968 46.5655L46.5669 16.6978C50.2236 13.041 50.2236 7.09135 46.5669 3.43502ZM46.0139 16.1447L16.1438 46.0121C14.5204 47.6355 12.3616 48.5299 10.0655 48.5299C7.76935 48.5299 5.61091 47.6355 3.98709 46.0121C0.63856 42.6636 0.635431 37.2164 3.97849 33.864C3.9824 33.8601 3.9867 33.8561 3.99061 33.8522L33.8306 4.01227C33.84 4.00445 33.849 3.99663 33.8572 3.98803C35.4806 2.3646 37.6394 1.47017 39.9355 1.47017C42.2316 1.47017 44.3905 2.3646 46.0139 3.98803C49.3656 7.3393 49.3656 12.7931 46.0139 16.1447Z" fill="black"/>
<path d="M4.48503 46.5263C4.30083 46.4141 4.05991 46.4724 3.94728 46.6566L2.52918 48.9808L1.01917 47.4708L3.34343 46.0523C3.52803 45.9397 3.5863 45.6992 3.47367 45.5146C3.36064 45.33 3.11973 45.2721 2.93591 45.3844L0.187316 47.0618C0.0848495 47.1243 0.0171905 47.2303 0.00272011 47.3492C-0.0113592 47.4685 0.0297055 47.5874 0.114573 47.6722L2.32737 49.885C2.4009 49.959 2.50063 49.9996 2.60388 49.9996C2.61952 49.9996 2.63477 49.9985 2.65042 49.9973C2.76931 49.9832 2.87529 49.9152 2.93787 49.8127L4.61526 47.0641C4.72751 46.8795 4.66924 46.639 4.48503 46.5263Z" fill="black"/>
<path d="M49.8853 2.3273L47.6725 0.114502C47.5876 0.0296346 47.4691 -0.00947467 47.3495 0.00264919C47.2306 0.0167285 47.1246 0.0847786 47.062 0.187245L45.385 2.93584C45.2728 3.12044 45.331 3.36096 45.5152 3.4736C45.6998 3.58662 45.9403 3.52757 46.053 3.34336L47.4711 1.0191L48.9807 2.52872L46.6564 3.94682C46.4718 4.05945 46.4136 4.29997 46.5262 4.48457C46.5997 4.60542 46.7284 4.6719 46.8602 4.6719C46.9294 4.6719 46.9998 4.65352 47.064 4.6148L49.8126 2.9378C49.915 2.87522 49.9827 2.76924 49.9971 2.65035C50.0112 2.53106 49.9702 2.41217 49.8853 2.3273Z" fill="black"/>
<path d="M36.8768 20.313L26.9208 10.3574C26.7678 10.2044 26.5207 10.2044 26.3678 10.3574C26.2148 10.5103 26.2148 10.7575 26.3678 10.9104L36.0473 20.5895L20.5902 36.0467L10.9106 26.3675C10.7577 26.2146 10.5105 26.2146 10.3576 26.3675C10.2047 26.5204 10.2047 26.7676 10.3576 26.9205L20.3137 36.8762C20.3899 36.9524 20.49 36.9908 20.5902 36.9908C20.6899 36.9908 20.79 36.9524 20.8667 36.8762L36.8768 20.866C36.9503 20.7929 36.9914 20.6932 36.9914 20.5895C36.9914 20.4859 36.9503 20.3865 36.8768 20.313Z" fill="black"/>
<path d="M45.1838 4.81807C42.2991 1.93377 37.5986 1.92555 34.6935 4.81103L34.9595 5.09809L35.2563 5.35465C37.845 2.78322 42.0504 2.79104 44.6308 5.37108C45.8831 6.62296 46.5726 8.29058 46.5726 10.0665C46.5726 11.8425 45.8831 13.5097 44.6308 14.762L14.7607 44.6293C13.5084 45.8816 11.8408 46.5711 10.0649 46.5711C8.28932 46.5711 6.6217 45.8816 5.36942 44.6293C2.78743 42.0473 2.78195 37.8404 5.35652 35.2513C5.36238 35.2458 5.36747 35.2404 5.37255 35.2345L5.37333 35.2353L32.5148 8.09582C32.6677 7.9429 32.6677 7.69573 32.5148 7.54281C32.3618 7.3899 32.1147 7.3899 31.9618 7.54281L4.81172 34.6901C4.8086 34.6932 4.80547 34.6964 4.80234 34.6995C1.92429 37.5936 1.93055 42.2961 4.81681 45.1823C6.21653 46.5824 8.08047 47.3533 10.0653 47.3533C12.0505 47.3533 13.9144 46.5824 15.3137 45.1823L45.1838 15.315C46.5839 13.9153 47.3548 12.0513 47.3548 10.0665C47.3548 8.08174 46.5839 6.21779 45.1838 4.81807Z" fill="black"/>
</g>
<defs>
<clipPath id="clip0_229_10646">
<rect width="50" height="50" fill="white"/>
</clipPath>
</defs>
</svg>
