<svg width="240" height="179" viewBox="0 0 240 179" fill="none" xmlns="http://www.w3.org/2000/svg">
<g filter="url(#filter0_d_125_16)">
<path d="M17.4016 61.035C17.4016 62.1617 17.0116 63.115 16.2316 63.895C15.4949 64.6317 14.5632 65 13.4366 65C12.3532 65 11.4432 64.6317 10.7066 63.895C9.9699 63.115 9.60156 62.1617 9.60156 61.035V20.865C9.60156 19.7383 9.9699 18.8067 10.7066 18.07C11.4866 17.29 12.4399 16.9 13.5666 16.9C14.6932 16.9 15.6032 17.29 16.2966 18.07C17.0332 18.8067 17.4016 19.7383 17.4016 20.865V61.035ZM59.5713 47.645C59.5713 51.1983 58.7697 54.34 57.1663 57.07C55.6063 59.7567 53.483 61.8583 50.7963 63.375C48.153 64.8917 45.1847 65.65 41.8913 65.65C38.598 65.65 35.608 64.8917 32.9213 63.375C30.278 61.8583 28.1547 59.7567 26.5513 57.07C24.9913 54.34 24.2113 51.1983 24.2113 47.645C24.2113 44.0917 24.9913 40.9717 26.5513 38.285C28.1547 35.555 30.278 33.4317 32.9213 31.915C35.608 30.355 38.598 29.575 41.8913 29.575C45.1847 29.575 48.153 30.355 50.7963 31.915C53.483 33.4317 55.6063 35.555 57.1663 38.285C58.7697 40.9717 59.5713 44.0917 59.5713 47.645ZM51.7713 47.645C51.7713 45.435 51.3163 43.5283 50.4063 41.925C49.5397 40.2783 48.348 39 46.8313 38.09C45.358 37.18 43.7113 36.725 41.8913 36.725C40.0713 36.725 38.403 37.18 36.8863 38.09C35.413 39 34.2213 40.2783 33.3113 41.925C32.4447 43.5283 32.0113 45.435 32.0113 47.645C32.0113 49.8117 32.4447 51.7183 33.3113 53.365C34.2213 54.9683 35.413 56.225 36.8863 57.135C38.403 58.045 40.0713 58.5 41.8913 58.5C43.7113 58.5 45.358 58.045 46.8313 57.135C48.348 56.225 49.5397 54.9683 50.4063 53.365C51.3163 51.7183 51.7713 49.8117 51.7713 47.645ZM100.133 47.645C100.133 51.1983 99.3312 54.34 97.7279 57.07C96.1679 59.7567 94.0445 61.8583 91.3579 63.375C88.7145 64.8917 85.7462 65.65 82.4529 65.65C79.1595 65.65 76.1695 64.8917 73.4829 63.375C70.8395 61.8583 68.7162 59.7567 67.1129 57.07C65.5529 54.34 64.7729 51.1983 64.7729 47.645C64.7729 44.0917 65.5529 40.9717 67.1129 38.285C68.7162 35.555 70.8395 33.4317 73.4829 31.915C76.1695 30.355 79.1595 29.575 82.4529 29.575C85.7462 29.575 88.7145 30.355 91.3579 31.915C94.0445 33.4317 96.1679 35.555 97.7279 38.285C99.3312 40.9717 100.133 44.0917 100.133 47.645ZM92.3329 47.645C92.3329 45.435 91.8779 43.5283 90.9679 41.925C90.1012 40.2783 88.9095 39 87.3929 38.09C85.9195 37.18 84.2729 36.725 82.4529 36.725C80.6329 36.725 78.9645 37.18 77.4479 38.09C75.9745 39 74.7829 40.2783 73.8729 41.925C73.0062 43.5283 72.5729 45.435 72.5729 47.645C72.5729 49.8117 73.0062 51.7183 73.8729 53.365C74.7829 54.9683 75.9745 56.225 77.4479 57.135C78.9645 58.045 80.6329 58.5 82.4529 58.5C84.2729 58.5 85.9195 58.045 87.3929 57.135C88.9095 56.225 90.1012 54.9683 90.9679 53.365C91.8779 51.7183 92.3329 49.8117 92.3329 47.645ZM111.509 65C110.383 65 109.451 64.6317 108.714 63.895C107.978 63.115 107.609 62.1617 107.609 61.035V20.865C107.609 19.7383 107.978 18.8067 108.714 18.07C109.451 17.29 110.383 16.9 111.509 16.9C112.636 16.9 113.568 17.29 114.304 18.07C115.041 18.8067 115.409 19.7383 115.409 20.865V61.035C115.409 62.1617 115.041 63.115 114.304 63.895C113.568 64.6317 112.636 65 111.509 65ZM132.179 30.225C133.176 30.225 134.043 30.6367 134.779 31.46C135.516 32.2833 135.884 33.085 135.884 33.865C135.884 34.905 135.364 35.88 134.324 36.79L114.759 54.795L114.434 45.825L129.319 31.46C130.143 30.6367 131.096 30.225 132.179 30.225ZM133.154 64.935C132.028 64.935 131.074 64.5017 130.294 63.635L118.269 50.895L124.184 45.435L135.884 58.175C136.708 59.0417 137.119 60.0167 137.119 61.1C137.119 62.2267 136.664 63.1583 135.754 63.895C134.888 64.5883 134.021 64.935 133.154 64.935ZM151.311 61.035C151.311 62.1617 150.943 63.115 150.206 63.895C149.47 64.6317 148.538 65 147.411 65C146.285 65 145.353 64.6317 144.616 63.895C143.88 63.115 143.511 62.1617 143.511 61.035V34.19C143.511 33.0633 143.88 32.1317 144.616 31.395C145.353 30.615 146.285 30.225 147.411 30.225C148.538 30.225 149.47 30.615 150.206 31.395C150.943 32.1317 151.311 33.0633 151.311 34.19V61.035ZM147.346 26C145.873 26 144.833 25.7617 144.226 25.285C143.62 24.8083 143.316 23.9633 143.316 22.75V21.515C143.316 20.2583 143.641 19.4133 144.291 18.98C144.985 18.5033 146.025 18.265 147.411 18.265C148.928 18.265 149.99 18.5033 150.596 18.98C151.203 19.4567 151.506 20.3017 151.506 21.515V22.75C151.506 24.0067 151.181 24.8733 150.531 25.35C149.881 25.7833 148.82 26 147.346 26ZM177.918 29.575C181.124 29.575 183.551 30.2467 185.198 31.59C186.888 32.9333 188.036 34.7317 188.643 36.985C189.293 39.195 189.618 41.665 189.618 44.395V61.035C189.618 62.1617 189.249 63.115 188.513 63.895C187.776 64.6317 186.844 65 185.718 65C184.591 65 183.659 64.6317 182.923 63.895C182.186 63.115 181.818 62.1617 181.818 61.035V44.395C181.818 42.965 181.623 41.6867 181.233 40.56C180.886 39.39 180.236 38.4583 179.283 37.765C178.329 37.0717 176.964 36.725 175.188 36.725C173.454 36.725 171.981 37.0717 170.768 37.765C169.598 38.4583 168.688 39.39 168.038 40.56C167.431 41.6867 167.128 42.965 167.128 44.395V61.035C167.128 62.1617 166.759 63.115 166.023 63.895C165.286 64.6317 164.354 65 163.228 65C162.101 65 161.169 64.6317 160.433 63.895C159.696 63.115 159.328 62.1617 159.328 61.035V34.19C159.328 33.0633 159.696 32.1317 160.433 31.395C161.169 30.615 162.101 30.225 163.228 30.225C164.354 30.225 165.286 30.615 166.023 31.395C166.759 32.1317 167.128 33.0633 167.128 34.19V36.985L166.153 36.79C166.543 36.0533 167.106 35.2733 167.843 34.45C168.579 33.5833 169.446 32.7817 170.443 32.045C171.439 31.3083 172.566 30.7233 173.823 30.29C175.079 29.8133 176.444 29.575 177.918 29.575ZM212.478 29.575C214.298 29.575 215.967 29.8567 217.483 30.42C219 30.9833 220.3 31.6983 221.383 32.565C222.51 33.4317 223.377 34.32 223.983 35.23C224.633 36.0967 224.958 36.8333 224.958 37.44L223.268 38.285V33.54C223.268 32.4133 223.637 31.4817 224.373 30.745C225.11 29.965 226.042 29.575 227.168 29.575C228.295 29.575 229.227 29.9433 229.963 30.68C230.7 31.4167 231.068 32.37 231.068 33.54V62.465C231.068 66.235 230.245 69.2467 228.598 71.5C226.995 73.7967 224.872 75.4433 222.228 76.44C219.585 77.48 216.747 78 213.713 78C212.847 78 211.72 77.8917 210.333 77.675C208.947 77.4583 207.625 77.1983 206.368 76.895C205.112 76.5917 204.158 76.31 203.508 76.05C202.208 75.4867 201.298 74.7717 200.778 73.905C200.302 73.0817 200.215 72.1933 200.518 71.24C200.908 69.9833 201.537 69.1167 202.403 68.64C203.27 68.2067 204.18 68.1633 205.133 68.51C205.567 68.64 206.282 68.9 207.278 69.29C208.275 69.68 209.358 70.0267 210.528 70.33C211.742 70.6767 212.803 70.85 213.713 70.85C216.963 70.85 219.368 70.2 220.928 68.9C222.488 67.6 223.268 65.8017 223.268 63.505V57.85L224.048 58.435C224.048 58.9983 223.745 59.6917 223.138 60.515C222.575 61.295 221.773 62.075 220.733 62.855C219.737 63.635 218.545 64.3067 217.158 64.87C215.772 65.39 214.298 65.65 212.738 65.65C209.662 65.65 206.888 64.8917 204.418 63.375C201.948 61.815 199.998 59.6917 198.568 57.005C197.138 54.275 196.423 51.155 196.423 47.645C196.423 44.0917 197.138 40.9717 198.568 38.285C199.998 35.555 201.927 33.4317 204.353 31.915C206.78 30.355 209.488 29.575 212.478 29.575ZM213.713 36.725C211.763 36.725 210.052 37.2017 208.578 38.155C207.105 39.1083 205.957 40.4083 205.133 42.055C204.31 43.7017 203.898 45.565 203.898 47.645C203.898 49.6817 204.31 51.5233 205.133 53.17C205.957 54.8167 207.105 56.1167 208.578 57.07C210.052 58.0233 211.763 58.5 213.713 58.5C215.707 58.5 217.44 58.0233 218.913 57.07C220.387 56.1167 221.535 54.8167 222.358 53.17C223.182 51.5233 223.593 49.6817 223.593 47.645C223.593 45.565 223.182 43.7017 222.358 42.055C221.535 40.4083 220.387 39.1083 218.913 38.155C217.44 37.2017 215.707 36.725 213.713 36.725ZM57.405 110.575C59.225 110.575 60.8933 110.857 62.41 111.42C63.9267 111.983 65.2267 112.698 66.31 113.565C67.4367 114.432 68.3033 115.32 68.91 116.23C69.56 117.097 69.885 117.833 69.885 118.44L68.195 119.285V114.54C68.195 113.413 68.5633 112.482 69.3 111.745C70.0367 110.965 70.9683 110.575 72.095 110.575C73.2217 110.575 74.1533 110.943 74.89 111.68C75.6267 112.417 75.995 113.37 75.995 114.54V143.465C75.995 147.235 75.1717 150.247 73.525 152.5C71.9217 154.797 69.7983 156.443 67.155 157.44C64.5117 158.48 61.6733 159 58.64 159C57.7733 159 56.6467 158.892 55.26 158.675C53.8733 158.458 52.5517 158.198 51.295 157.895C50.0383 157.592 49.085 157.31 48.435 157.05C47.135 156.487 46.225 155.772 45.705 154.905C45.2283 154.082 45.1417 153.193 45.445 152.24C45.835 150.983 46.4633 150.117 47.33 149.64C48.1967 149.207 49.1067 149.163 50.06 149.51C50.4933 149.64 51.2083 149.9 52.205 150.29C53.2017 150.68 54.285 151.027 55.455 151.33C56.6683 151.677 57.73 151.85 58.64 151.85C61.89 151.85 64.295 151.2 65.855 149.9C67.415 148.6 68.195 146.802 68.195 144.505V138.85L68.975 139.435C68.975 139.998 68.6717 140.692 68.065 141.515C67.5017 142.295 66.7 143.075 65.66 143.855C64.6633 144.635 63.4717 145.307 62.085 145.87C60.6983 146.39 59.225 146.65 57.665 146.65C54.5883 146.65 51.815 145.892 49.345 144.375C46.875 142.815 44.925 140.692 43.495 138.005C42.065 135.275 41.35 132.155 41.35 128.645C41.35 125.092 42.065 121.972 43.495 119.285C44.925 116.555 46.8533 114.432 49.28 112.915C51.7067 111.355 54.415 110.575 57.405 110.575ZM58.64 117.725C56.69 117.725 54.9783 118.202 53.505 119.155C52.0317 120.108 50.8833 121.408 50.06 123.055C49.2367 124.702 48.825 126.565 48.825 128.645C48.825 130.682 49.2367 132.523 50.06 134.17C50.8833 135.817 52.0317 137.117 53.505 138.07C54.9783 139.023 56.69 139.5 58.64 139.5C60.6333 139.5 62.3667 139.023 63.84 138.07C65.3133 137.117 66.4617 135.817 67.285 134.17C68.1083 132.523 68.52 130.682 68.52 128.645C68.52 126.565 68.1083 124.702 67.285 123.055C66.4617 121.408 65.3133 120.108 63.84 119.155C62.3667 118.202 60.6333 117.725 58.64 117.725ZM92.8752 142.035C92.8752 143.162 92.4852 144.115 91.7052 144.895C90.9685 145.632 90.0369 146 88.9102 146C87.8269 146 86.9169 145.632 86.1802 144.895C85.4435 144.115 85.0752 143.162 85.0752 142.035V101.865C85.0752 100.738 85.4435 99.8067 86.1802 99.07C86.9602 98.29 87.9135 97.9 89.0402 97.9C90.1669 97.9 91.0769 98.29 91.7702 99.07C92.5069 99.8067 92.8752 100.738 92.8752 101.865V142.035ZM130.415 110.575C131.541 110.575 132.473 110.943 133.21 111.68C133.946 112.417 134.315 113.37 134.315 114.54V142.035C134.315 143.162 133.946 144.115 133.21 144.895C132.473 145.632 131.541 146 130.415 146C129.288 146 128.356 145.632 127.62 144.895C126.883 144.115 126.515 143.162 126.515 142.035V138.85L127.945 139.435C127.945 139.998 127.641 140.692 127.035 141.515C126.428 142.295 125.605 143.075 124.565 143.855C123.525 144.635 122.29 145.307 120.86 145.87C119.473 146.39 117.956 146.65 116.31 146.65C113.32 146.65 110.611 145.892 108.185 144.375C105.758 142.815 103.83 140.692 102.4 138.005C101.013 135.275 100.32 132.155 100.32 128.645C100.32 125.092 101.013 121.972 102.4 119.285C103.83 116.555 105.736 114.432 108.12 112.915C110.503 111.355 113.146 110.575 116.05 110.575C117.913 110.575 119.625 110.857 121.185 111.42C122.745 111.983 124.088 112.698 125.215 113.565C126.385 114.432 127.273 115.32 127.88 116.23C128.53 117.097 128.855 117.833 128.855 118.44L126.515 119.285V114.54C126.515 113.413 126.883 112.482 127.62 111.745C128.356 110.965 129.288 110.575 130.415 110.575ZM117.285 139.5C119.191 139.5 120.86 139.023 122.29 138.07C123.72 137.117 124.825 135.817 125.605 134.17C126.428 132.523 126.84 130.682 126.84 128.645C126.84 126.565 126.428 124.702 125.605 123.055C124.825 121.408 123.72 120.108 122.29 119.155C120.86 118.202 119.191 117.725 117.285 117.725C115.421 117.725 113.775 118.202 112.345 119.155C110.915 120.108 109.788 121.408 108.965 123.055C108.185 124.702 107.795 126.565 107.795 128.645C107.795 130.682 108.185 132.523 108.965 134.17C109.788 135.817 110.915 137.117 112.345 138.07C113.775 139.023 115.421 139.5 117.285 139.5ZM140.745 140.605C140.312 139.998 140.117 139.218 140.16 138.265C140.203 137.312 140.767 136.488 141.85 135.795C142.543 135.362 143.28 135.188 144.06 135.275C144.84 135.318 145.598 135.708 146.335 136.445C147.592 137.702 148.913 138.677 150.3 139.37C151.687 140.063 153.42 140.41 155.5 140.41C156.15 140.367 156.865 140.28 157.645 140.15C158.425 139.977 159.097 139.63 159.66 139.11C160.267 138.547 160.57 137.702 160.57 136.575C160.57 135.622 160.245 134.863 159.595 134.3C158.945 133.737 158.078 133.26 156.995 132.87C155.955 132.48 154.785 132.112 153.485 131.765C152.142 131.375 150.755 130.942 149.325 130.465C147.938 129.988 146.66 129.382 145.49 128.645C144.32 127.865 143.367 126.847 142.63 125.59C141.893 124.333 141.525 122.752 141.525 120.845C141.525 118.678 142.132 116.837 143.345 115.32C144.558 113.803 146.118 112.633 148.025 111.81C149.975 110.987 152.012 110.575 154.135 110.575C155.478 110.575 156.887 110.748 158.36 111.095C159.833 111.398 161.242 111.918 162.585 112.655C163.928 113.348 165.055 114.28 165.965 115.45C166.442 116.1 166.723 116.88 166.81 117.79C166.897 118.7 166.485 119.523 165.575 120.26C164.925 120.78 164.167 121.018 163.3 120.975C162.433 120.888 161.718 120.585 161.155 120.065C160.418 119.112 159.422 118.353 158.165 117.79C156.952 117.227 155.543 116.945 153.94 116.945C153.29 116.945 152.575 117.032 151.795 117.205C151.058 117.335 150.408 117.66 149.845 118.18C149.282 118.657 149 119.437 149 120.52C149 121.517 149.325 122.318 149.975 122.925C150.625 123.488 151.492 123.965 152.575 124.355C153.702 124.702 154.893 125.048 156.15 125.395C157.45 125.742 158.772 126.153 160.115 126.63C161.458 127.107 162.693 127.735 163.82 128.515C164.947 129.295 165.857 130.313 166.55 131.57C167.243 132.783 167.59 134.343 167.59 136.25C167.59 138.46 166.94 140.345 165.64 141.905C164.34 143.465 162.715 144.657 160.765 145.48C158.815 146.26 156.822 146.65 154.785 146.65C152.228 146.65 149.672 146.217 147.115 145.35C144.558 144.44 142.435 142.858 140.745 140.605ZM172.103 140.605C171.669 139.998 171.474 139.218 171.518 138.265C171.561 137.312 172.124 136.488 173.208 135.795C173.901 135.362 174.638 135.188 175.418 135.275C176.198 135.318 176.956 135.708 177.693 136.445C178.949 137.702 180.271 138.677 181.658 139.37C183.044 140.063 184.778 140.41 186.858 140.41C187.508 140.367 188.223 140.28 189.003 140.15C189.783 139.977 190.454 139.63 191.018 139.11C191.624 138.547 191.928 137.702 191.928 136.575C191.928 135.622 191.603 134.863 190.953 134.3C190.303 133.737 189.436 133.26 188.353 132.87C187.313 132.48 186.143 132.112 184.843 131.765C183.499 131.375 182.113 130.942 180.683 130.465C179.296 129.988 178.018 129.382 176.848 128.645C175.678 127.865 174.724 126.847 173.988 125.59C173.251 124.333 172.883 122.752 172.883 120.845C172.883 118.678 173.489 116.837 174.703 115.32C175.916 113.803 177.476 112.633 179.383 111.81C181.333 110.987 183.369 110.575 185.493 110.575C186.836 110.575 188.244 110.748 189.718 111.095C191.191 111.398 192.599 111.918 193.943 112.655C195.286 113.348 196.413 114.28 197.323 115.45C197.799 116.1 198.081 116.88 198.168 117.79C198.254 118.7 197.843 119.523 196.933 120.26C196.283 120.78 195.524 121.018 194.658 120.975C193.791 120.888 193.076 120.585 192.513 120.065C191.776 119.112 190.779 118.353 189.523 117.79C188.309 117.227 186.901 116.945 185.298 116.945C184.648 116.945 183.933 117.032 183.153 117.205C182.416 117.335 181.766 117.66 181.203 118.18C180.639 118.657 180.358 119.437 180.358 120.52C180.358 121.517 180.683 122.318 181.333 122.925C181.983 123.488 182.849 123.965 183.933 124.355C185.059 124.702 186.251 125.048 187.508 125.395C188.808 125.742 190.129 126.153 191.473 126.63C192.816 127.107 194.051 127.735 195.178 128.515C196.304 129.295 197.214 130.313 197.908 131.57C198.601 132.783 198.948 134.343 198.948 136.25C198.948 138.46 198.298 140.345 196.998 141.905C195.698 143.465 194.073 144.657 192.123 145.48C190.173 146.26 188.179 146.65 186.143 146.65C183.586 146.65 181.029 146.217 178.473 145.35C175.916 144.44 173.793 142.858 172.103 140.605Z" fill="white"/>
<path d="M57.1974 121C53.7802 121 51 123.782 51 127.201C51 127.676 51.3849 128.061 51.8595 128.061C52.3342 128.061 52.719 127.676 52.719 127.201C52.719 124.73 54.728 122.72 57.1974 122.72C57.6721 122.72 58.0569 122.335 58.0569 121.86C58.0569 121.385 57.6721 121 57.1974 121Z" fill="white"/>
<path d="M70.9608 136.144C72.5145 133.707 73.4148 130.816 73.4148 127.717C73.4148 119.05 66.3692 112 57.7074 112C54.6103 112 51.7204 112.901 49.2846 114.455C47.3439 115.693 45.6924 117.346 44.4551 119.288C42.9014 121.725 42 124.618 42 127.717C42 136.383 49.0467 143.433 57.7074 143.433C60.8045 143.433 63.6956 142.531 66.1314 140.977C68.072 139.739 69.7235 138.086 70.9608 136.144ZM62.8009 137.644C61.2734 138.433 59.5411 138.878 57.7074 138.878C51.5576 138.878 46.5528 133.87 46.5528 127.717C46.5528 125.882 46.9979 124.149 47.7856 122.62C48.852 120.55 50.5469 118.855 52.6161 117.789C54.1436 117.001 55.8748 116.556 57.7073 116.556C63.8583 116.556 68.8619 121.562 68.8619 127.717C68.8619 129.55 68.4168 131.283 67.6292 132.811C66.5639 134.881 64.8702 136.577 62.8009 137.644Z" fill="white"/>
<path d="M84.7921 158.067L73.8353 138C72.2757 142.182 70.2775 145.848 68 148.714L78.9568 168.781C79.7627 170.26 80.819 171 81.8738 171C82.93 171 83.9863 170.26 84.7922 168.781C86.4026 165.821 86.4026 161.026 84.7921 158.067Z" fill="white"/>
</g>
<defs>
<filter id="filter0_d_125_16" x="5.60156" y="16.8999" width="229.467" height="162.1" filterUnits="userSpaceOnUse" color-interpolation-filters="sRGB">
<feFlood flood-opacity="0" result="BackgroundImageFix"/>
<feColorMatrix in="SourceAlpha" type="matrix" values="0 0 0 0 0 0 0 0 0 0 0 0 0 0 0 0 0 0 127 0" result="hardAlpha"/>
<feOffset dy="4"/>
<feGaussianBlur stdDeviation="2"/>
<feComposite in2="hardAlpha" operator="out"/>
<feColorMatrix type="matrix" values="0 0 0 0 0 0 0 0 0 0 0 0 0 0 0 0 0 0 0.25 0"/>
<feBlend mode="normal" in2="BackgroundImageFix" result="effect1_dropShadow_125_16"/>
<feBlend mode="normal" in="SourceGraphic" in2="effect1_dropShadow_125_16" result="shape"/>
</filter>
</defs>
</svg>
