<svg width="214" height="214" viewBox="0 0 214 214" fill="none" xmlns="http://www.w3.org/2000/svg">
<path d="M107 0.333008C121.008 0.333008 134.878 3.09202 147.819 8.45253C160.761 13.813 172.52 21.67 182.425 31.575C192.33 41.4799 200.187 53.2387 205.547 66.1801C210.908 79.1215 213.667 92.992 213.667 107C213.667 135.289 202.429 162.421 182.425 182.424C162.421 202.428 135.29 213.666 107 213.666C92.9923 213.666 79.1217 210.907 66.1804 205.547C53.239 200.186 41.4801 192.329 31.5752 182.424C11.5713 162.421 0.333252 135.289 0.333252 107C0.333252 78.7099 11.5713 51.5788 31.5752 31.575C51.5791 11.5711 78.7102 0.333008 107 0.333008ZM107 21.6663C84.3681 21.6663 62.6632 30.6568 46.6601 46.6599C30.657 62.663 21.6666 84.3679 21.6666 107C21.6666 129.631 30.657 151.336 46.6601 167.339C62.6632 183.343 84.3681 192.333 107 192.333C129.632 192.333 151.337 183.343 167.34 167.339C183.343 151.336 192.333 129.631 192.333 107C192.333 84.3679 183.343 62.663 167.34 46.6599C151.337 30.6568 129.632 21.6663 107 21.6663ZM149.667 85.6663V160.333C149.667 163.162 148.543 165.875 146.542 167.875C144.542 169.876 141.829 171 139 171H74.9999C72.1709 171 69.4578 169.876 67.4575 167.875C65.4571 165.875 64.3333 163.162 64.3333 160.333V85.6663H149.667ZM123 42.9997L133.667 53.6663H160.333V74.9997H53.6666V53.6663H80.3333L90.9999 42.9997H123Z" fill="#ADEBE7"/>
</svg>
