<svg width="53" height="43" viewBox="0 0 53 43" fill="none" xmlns="http://www.w3.org/2000/svg">
<path d="M43.1119 20.9161C43.081 20.9002 43.0505 20.888 43.0172 20.8791C39.2565 19.3505 34.8249 18.5414 30.1937 18.5414C29.5519 18.5414 28.9032 18.5583 28.2108 18.5934C25.5521 18.727 22.9815 19.1316 20.566 19.793C20.5257 19.7986 20.4882 19.8089 20.4502 19.8253C18.3919 20.4052 16.5169 21.1519 14.8744 22.0467C15.6952 20.8547 16.0252 19.5206 16.1269 19.0064L17.0541 18.4312C17.2744 18.2944 17.3419 18.0056 17.2055 17.7858C17.0691 17.5659 16.7804 17.4984 16.5601 17.6344L15.6207 18.217C14.858 18.0342 12.2143 17.5397 10.2563 18.9056C9.80725 19.2192 9.43178 19.6087 9.12428 20.0672V17.1511C9.76412 17.3381 10.3721 17.4333 10.9463 17.4333C11.7952 17.4333 12.5701 17.2284 13.2643 16.8197C15.3094 15.615 15.9676 13.0242 16.1227 12.248L17.0536 11.6709C17.2735 11.5345 17.3415 11.2453 17.2051 11.0255C17.0687 10.8056 16.7799 10.7377 16.5596 10.8741L15.6268 11.452C14.8721 11.2706 12.2185 10.77 10.2558 12.1392C9.80678 12.4528 9.43131 12.8423 9.12381 13.3008V11.9133C10.6112 10.8014 11.4137 9.50391 11.4947 8.04984C11.6279 5.65734 9.76928 3.64734 9.2035 3.09375V0.46875C9.2035 0.21 8.99349 0 8.73475 0C8.476 0 8.266 0.21 8.266 0.46875V3.08766C7.69834 3.61969 5.87865 5.51062 5.92834 7.87031C5.95974 9.35109 6.72428 10.7048 8.18631 11.8997V13.3444C7.87365 12.8658 7.48553 12.4622 7.02146 12.1383C5.05881 10.7681 2.40287 11.2702 1.64912 11.4516L0.716307 10.8731C0.495995 10.7363 0.207245 10.8047 0.0708384 11.0245C-0.0655679 11.2444 0.00240087 11.5336 0.222245 11.67L1.15271 12.247C1.3074 13.0252 1.96412 15.6216 4.01631 16.8263C4.70865 17.2327 5.48115 17.4356 6.32725 17.4356C6.91225 17.4356 7.53287 17.3372 8.18631 17.1431V20.1112C7.87365 19.6327 7.48553 19.2291 7.02146 18.9052C5.06349 17.5383 2.41693 18.0347 1.65568 18.217L0.716307 17.6344C0.495995 17.4975 0.207245 17.5659 0.0713073 17.7858C-0.0655677 18.0056 0.00240107 18.2944 0.222714 18.4308L1.15178 19.0069C1.30412 19.7775 1.95943 22.3856 4.01724 23.5931C4.70959 23.9995 5.48209 24.2025 6.32771 24.2025C6.91271 24.2025 7.53334 24.1045 8.18678 23.91V26.8781C7.87412 26.3995 7.48599 25.9959 7.02193 25.672C5.05974 24.3019 2.40428 24.8034 1.65006 24.9848L0.716776 24.4059C0.496463 24.2695 0.207714 24.3375 0.0713073 24.5573C-0.0650989 24.7772 0.00286981 25.0664 0.222714 25.2028L1.15271 25.7794C1.3074 26.557 1.96412 29.1544 4.01678 30.3595C4.70912 30.7659 5.48162 30.9689 6.32725 30.9689C6.91225 30.9689 7.53287 30.8709 8.18631 30.6764V33.6445C7.87365 33.1659 7.48553 32.7623 7.02146 32.4384C5.06443 31.072 2.41928 31.5675 1.65662 31.7498L0.715839 31.1667C0.495526 31.0303 0.206776 31.0983 0.0703699 31.3181C-0.0660364 31.538 0.00193238 31.8272 0.221776 31.9636L1.15037 32.5397C1.30271 33.3094 1.95756 35.9184 4.01584 37.1264C4.70818 37.5328 5.48068 37.7358 6.32678 37.7358C6.91178 37.7358 7.5324 37.6373 8.18584 37.4433V42.398C8.18584 42.6567 8.39584 42.8667 8.65459 42.8667C8.91334 42.8667 9.12334 42.6567 9.12334 42.398V37.4541C9.76459 37.642 10.3744 37.7362 10.9496 37.7362C11.2285 37.7362 11.4966 37.7058 11.7596 37.6617C15.4013 39.8686 21.5977 40.9898 30.1922 40.9898C44.7863 40.9898 52.5001 37.6833 52.5001 31.4273C52.5015 27.2419 48.991 23.3138 43.1119 20.9161ZM10.1377 25.7616C10.133 25.7658 10.1307 25.7719 10.126 25.7766C9.736 26.0714 9.40037 26.4225 9.12474 26.8341V23.9208C9.76646 24.1087 10.3758 24.203 10.951 24.203C11.2412 24.203 11.5191 24.1702 11.7915 24.1223C11.1737 24.6422 10.6191 25.1883 10.1377 25.7616ZM10.7897 26.4436C12.2485 25.4231 14.2847 25.6725 15.151 25.8431C14.9462 26.7005 14.3269 28.6486 12.7876 29.5519C11.799 30.1322 10.568 30.1772 9.13131 29.7014C9.29818 28.1986 9.85178 27.0998 10.7897 26.4436ZM15.6272 24.9848C15.128 24.8648 13.8015 24.6098 12.391 24.8428C13.1297 24.2208 13.973 23.64 14.9138 23.1042C15.2274 23.5922 15.5358 24.1856 15.7782 24.8916L15.6272 24.9848ZM10.7897 19.6767C12.2485 18.6558 14.2843 18.9056 15.151 19.0763C14.9462 19.9336 14.3269 21.8813 12.7876 22.785C11.799 23.3653 10.568 23.4103 9.13131 22.9345C9.29818 21.4317 9.85178 20.333 10.7897 19.6767ZM10.7897 12.9098C12.2466 11.8903 14.2787 12.1378 15.1472 12.3084C14.941 13.163 14.3185 15.113 12.7852 16.0139C11.7962 16.5942 10.5662 16.6406 9.13084 16.1663C9.29818 14.6644 9.85178 13.5661 10.7897 12.9098ZM6.86678 7.85531C6.8274 6.09516 8.12115 4.56891 8.72912 3.94969C9.34084 4.59656 10.6594 6.20719 10.5596 7.99734C10.4968 9.12797 9.85646 10.1634 8.66959 11.0822C7.50334 10.0945 6.89209 9.01125 6.86678 7.85531ZM4.49537 16.0205C2.95834 15.1209 2.33537 13.1667 2.12865 12.3084C2.99303 12.1369 5.02178 11.8861 6.48568 12.908C7.42553 13.5642 7.98053 14.6634 8.14834 16.1681C6.71303 16.6434 5.48396 16.5989 4.49537 16.0205ZM4.49537 22.7869C2.95881 21.8873 2.33537 19.9336 2.12865 19.0748C2.99303 18.9033 5.02178 18.6525 6.48568 19.6744C7.42553 20.3306 7.98053 21.4298 8.14834 22.9345C6.71303 23.4098 5.48349 23.3653 4.49537 22.7869ZM4.49537 29.5537C2.95834 28.6542 2.33537 26.7 2.12865 25.8417C2.99303 25.6702 5.02178 25.4194 6.48568 26.4412C7.38943 27.0722 7.93974 28.11 8.13006 29.5266C8.11271 29.5922 8.09959 29.6583 8.08459 29.723C6.67646 30.1753 5.46896 30.1233 4.49537 29.5537ZM4.49537 36.3206C2.95834 35.4211 2.33537 33.4669 2.12865 32.6086C2.99303 32.437 5.02178 32.1863 6.48568 33.2081C7.42553 33.8644 7.98053 34.9636 8.14834 36.4683C6.71303 36.9436 5.48396 36.8991 4.49537 36.3206ZM9.13084 36.4683C9.29818 34.9655 9.85178 33.8672 10.7897 33.2105C12.248 32.1895 14.2833 32.4389 15.1501 32.6095C14.9433 33.4683 14.3204 35.4216 12.7838 36.3206C11.7962 36.8991 10.5666 36.9436 9.13084 36.4683ZM30.1937 40.0523C22.3308 40.0523 16.5526 39.1148 12.9783 37.2684C13.073 37.2216 13.1701 37.1808 13.2619 37.1269C15.3212 35.9184 15.9755 33.308 16.1274 32.5392L17.0546 31.9645C17.2744 31.8281 17.3424 31.5389 17.206 31.3191C17.0696 31.0992 16.7808 31.0317 16.5605 31.1677L15.6202 31.7503C14.8566 31.5675 12.2138 31.0739 10.2568 32.4389C9.80771 32.7525 9.43224 33.142 9.12474 33.6005V30.6867C9.76646 30.8747 10.3758 30.9689 10.951 30.9689C11.7971 30.9689 12.5696 30.7655 13.2615 30.3595C15.1477 29.2528 15.8541 26.9714 16.0763 26.0044C16.2657 26.948 16.3285 28.0392 16.1649 29.288C16.1311 29.5444 16.3121 29.7802 16.569 29.8139C16.5896 29.8162 16.6102 29.8177 16.6304 29.8177C16.8619 29.8177 17.0635 29.6456 17.0944 29.4098C17.3026 27.8194 17.1751 26.4572 16.8802 25.3111L17.0541 25.2033C17.274 25.0669 17.3419 24.7777 17.2055 24.5578C17.0757 24.3487 16.8099 24.2831 16.5947 24.3933C16.3468 23.7211 16.0477 23.1431 15.7407 22.657C17.1563 21.9258 18.7402 21.3014 20.4657 20.8003C21.4904 22.1681 23.3476 25.455 22.8132 30.81C22.7874 31.0673 22.9754 31.2975 23.2332 31.3228C23.2491 31.3242 23.2646 31.3252 23.2801 31.3252C23.5182 31.3252 23.7216 31.1447 23.746 30.9028C24.2663 25.6894 22.6908 22.3313 21.4369 20.5439C23.5257 20.0166 25.7255 19.6791 27.9994 19.5488C29.0705 21.1284 31.1377 25.1559 30.571 32.1366C30.5499 32.3948 30.7421 32.6208 31.0004 32.6419C31.0135 32.6428 31.0261 32.6433 31.0388 32.6433C31.2807 32.6433 31.4855 32.4577 31.5057 32.2125C32.0462 25.5609 30.2588 21.4341 29.0808 19.4967C29.4577 19.485 29.8285 19.478 30.1937 19.478C31.8835 19.478 33.5447 19.5886 35.1544 19.8042C35.1788 19.8825 35.2163 19.9575 35.2819 20.0161C35.3199 20.0498 39.0601 23.4844 38.3279 30.8105C38.3021 31.0683 38.4901 31.298 38.7479 31.3237C38.7638 31.3252 38.7793 31.3261 38.7952 31.3261C39.0333 31.3261 39.2368 31.1456 39.2612 30.9042C39.8569 24.9417 37.6988 21.4294 36.5597 20.0259C38.7226 20.4066 40.7743 20.9803 42.6516 21.742C43.7822 22.8825 45.4979 25.3177 44.9827 29.2884C44.9494 29.5453 45.1304 29.7802 45.3872 29.8139C45.4079 29.8167 45.428 29.8177 45.4482 29.8177C45.6802 29.8177 45.8818 29.6456 45.9122 29.4094C46.3107 26.3409 45.4857 24.0952 44.5243 22.5914C48.9652 24.8452 51.564 28.0612 51.564 31.4273C51.564 38.5561 39.9427 40.0523 30.1937 40.0523Z" fill="black"/>
</svg>
