<svg width="70" height="70" viewBox="0 0 70 70" fill="none" xmlns="http://www.w3.org/2000/svg">
<rect x="2" y="2" width="66" height="66" rx="18" fill="#F5F5F5" stroke="#2FC6B7" stroke-width="4"/>
<path d="M52.1119 34.9161C52.081 34.9002 52.0505 34.888 52.0172 34.8791C48.2565 33.3505 43.8249 32.5414 39.1937 32.5414C38.5519 32.5414 37.9032 32.5583 37.2108 32.5934C34.5521 32.727 31.9815 33.1316 29.566 33.793C29.5257 33.7986 29.4882 33.8089 29.4502 33.8253C27.3919 34.4052 25.5169 35.1519 23.8744 36.0467C24.6952 34.8547 25.0252 33.5206 25.1269 33.0064L26.0541 32.4312C26.2744 32.2944 26.3419 32.0056 26.2055 31.7858C26.0691 31.5659 25.7804 31.4984 25.5601 31.6344L24.6207 32.217C23.858 32.0342 21.2143 31.5397 19.2563 32.9056C18.8072 33.2192 18.4318 33.6087 18.1243 34.0672V31.1511C18.7641 31.3381 19.3721 31.4333 19.9463 31.4333C20.7952 31.4333 21.5701 31.2284 22.2643 30.8197C24.3094 29.615 24.9676 27.0242 25.1227 26.248L26.0536 25.6709C26.2735 25.5345 26.3415 25.2453 26.2051 25.0255C26.0687 24.8056 25.7799 24.7377 25.5596 24.8741L24.6268 25.452C23.8721 25.2706 21.2185 24.77 19.2558 26.1392C18.8068 26.4528 18.4313 26.8423 18.1238 27.3008V25.9133C19.6112 24.8014 20.4137 23.5039 20.4947 22.0498C20.6279 19.6573 18.7693 17.6473 18.2035 17.0938V14.4688C18.2035 14.21 17.9935 14 17.7347 14C17.476 14 17.266 14.21 17.266 14.4688V17.0877C16.6983 17.6197 14.8787 19.5106 14.9283 21.8703C14.9597 23.3511 15.7243 24.7048 17.1863 25.8997V27.3444C16.8737 26.8658 16.4855 26.4622 16.0215 26.1383C14.0588 24.7681 11.4029 25.2702 10.6491 25.4516L9.71631 24.8731C9.49599 24.7363 9.20724 24.8047 9.07084 25.0245C8.93443 25.2444 9.0024 25.5336 9.22224 25.67L10.1527 26.247C10.3074 27.0252 10.9641 29.6216 13.0163 30.8263C13.7087 31.2327 14.4812 31.4356 15.3272 31.4356C15.9122 31.4356 16.5329 31.3372 17.1863 31.1431V34.1112C16.8737 33.6327 16.4855 33.2291 16.0215 32.9052C14.0635 31.5383 11.4169 32.0347 10.6557 32.217L9.71631 31.6344C9.49599 31.4975 9.20724 31.5659 9.07131 31.7858C8.93443 32.0056 9.0024 32.2944 9.22271 32.4308L10.1518 33.0069C10.3041 33.7775 10.9594 36.3856 13.0172 37.5931C13.7096 37.9995 14.4821 38.2025 15.3277 38.2025C15.9127 38.2025 16.5333 38.1045 17.1868 37.91V40.8781C16.8741 40.3995 16.486 39.9959 16.0219 39.672C14.0597 38.3019 11.4043 38.8034 10.6501 38.9848L9.71678 38.4059C9.49646 38.2695 9.20771 38.3375 9.07131 38.5573C8.9349 38.7772 9.00287 39.0664 9.22271 39.2028L10.1527 39.7794C10.3074 40.557 10.9641 43.1544 13.0168 44.3595C13.7091 44.7659 14.4816 44.9689 15.3272 44.9689C15.9122 44.9689 16.5329 44.8709 17.1863 44.6764V47.6445C16.8737 47.1659 16.4855 46.7623 16.0215 46.4384C14.0644 45.072 11.4193 45.5675 10.6566 45.7498L9.71584 45.1667C9.49553 45.0303 9.20678 45.0983 9.07037 45.3181C8.93396 45.538 9.00193 45.8272 9.22178 45.9636L10.1504 46.5397C10.3027 47.3094 10.9576 49.9184 13.0158 51.1264C13.7082 51.5328 14.4807 51.7358 15.3268 51.7358C15.9118 51.7358 16.5324 51.6373 17.1858 51.4433V56.398C17.1858 56.6567 17.3958 56.8667 17.6546 56.8667C17.9133 56.8667 18.1233 56.6567 18.1233 56.398V51.4541C18.7646 51.642 19.3744 51.7362 19.9496 51.7362C20.2285 51.7362 20.4966 51.7058 20.7596 51.6617C24.4013 53.8686 30.5977 54.9898 39.1922 54.9898C53.7863 54.9898 61.5001 51.6833 61.5001 45.4273C61.5015 41.2419 57.991 37.3138 52.1119 34.9161ZM19.1377 39.7616C19.133 39.7658 19.1307 39.7719 19.126 39.7766C18.736 40.0714 18.4004 40.4225 18.1247 40.8341V37.9208C18.7665 38.1087 19.3758 38.203 19.951 38.203C20.2412 38.203 20.5191 38.1702 20.7915 38.1223C20.1737 38.6422 19.6191 39.1883 19.1377 39.7616ZM19.7897 40.4436C21.2485 39.4231 23.2847 39.6725 24.151 39.8431C23.9462 40.7005 23.3269 42.6486 21.7876 43.5519C20.799 44.1322 19.568 44.1772 18.1313 43.7014C18.2982 42.1986 18.8518 41.0998 19.7897 40.4436ZM24.6272 38.9848C24.128 38.8648 22.8015 38.6098 21.391 38.8428C22.1297 38.2208 22.973 37.64 23.9138 37.1042C24.2274 37.5922 24.5358 38.1856 24.7782 38.8916L24.6272 38.9848ZM19.7897 33.6767C21.2485 32.6558 23.2843 32.9056 24.151 33.0763C23.9462 33.9336 23.3269 35.8813 21.7876 36.785C20.799 37.3653 19.568 37.4103 18.1313 36.9345C18.2982 35.4317 18.8518 34.333 19.7897 33.6767ZM19.7897 26.9098C21.2466 25.8903 23.2787 26.1378 24.1472 26.3084C23.941 27.163 23.3185 29.113 21.7852 30.0139C20.7962 30.5942 19.5662 30.6406 18.1308 30.1663C18.2982 28.6644 18.8518 27.5661 19.7897 26.9098ZM15.8668 21.8553C15.8274 20.0952 17.1212 18.5689 17.7291 17.9497C18.3408 18.5966 19.6594 20.2072 19.5596 21.9973C19.4968 23.128 18.8565 24.1634 17.6696 25.0822C16.5033 24.0945 15.8921 23.0113 15.8668 21.8553ZM13.4954 30.0205C11.9583 29.1209 11.3354 27.1667 11.1287 26.3084C11.993 26.1369 14.0218 25.8861 15.4857 26.908C16.4255 27.5642 16.9805 28.6634 17.1483 30.1681C15.713 30.6434 14.484 30.5989 13.4954 30.0205ZM13.4954 36.7869C11.9588 35.8873 11.3354 33.9336 11.1287 33.0748C11.993 32.9033 14.0218 32.6525 15.4857 33.6744C16.4255 34.3306 16.9805 35.4298 17.1483 36.9345C15.713 37.4098 14.4835 37.3653 13.4954 36.7869ZM13.4954 43.5537C11.9583 42.6542 11.3354 40.7 11.1287 39.8417C11.993 39.6702 14.0218 39.4194 15.4857 40.4412C16.3894 41.0722 16.9397 42.11 17.1301 43.5266C17.1127 43.5922 17.0996 43.6583 17.0846 43.723C15.6765 44.1753 14.469 44.1233 13.4954 43.5537ZM13.4954 50.3206C11.9583 49.4211 11.3354 47.4669 11.1287 46.6086C11.993 46.437 14.0218 46.1863 15.4857 47.2081C16.4255 47.8644 16.9805 48.9636 17.1483 50.4683C15.713 50.9436 14.484 50.8991 13.4954 50.3206ZM18.1308 50.4683C18.2982 48.9655 18.8518 47.8672 19.7897 47.2105C21.248 46.1895 23.2833 46.4389 24.1501 46.6095C23.9433 47.4683 23.3204 49.4216 21.7838 50.3206C20.7962 50.8991 19.5666 50.9436 18.1308 50.4683ZM39.1937 54.0523C31.3308 54.0523 25.5526 53.1148 21.9783 51.2684C22.073 51.2216 22.1701 51.1808 22.2619 51.1269C24.3212 49.9184 24.9755 47.308 25.1274 46.5392L26.0546 45.9645C26.2744 45.8281 26.3424 45.5389 26.206 45.3191C26.0696 45.0992 25.7808 45.0317 25.5605 45.1677L24.6202 45.7503C23.8566 45.5675 21.2138 45.0739 19.2568 46.4389C18.8077 46.7525 18.4322 47.142 18.1247 47.6005V44.6867C18.7665 44.8747 19.3758 44.9689 19.951 44.9689C20.7971 44.9689 21.5696 44.7655 22.2615 44.3595C24.1477 43.2528 24.8541 40.9714 25.0763 40.0044C25.2657 40.948 25.3285 42.0392 25.1649 43.288C25.1311 43.5444 25.3121 43.7802 25.569 43.8139C25.5896 43.8162 25.6102 43.8177 25.6304 43.8177C25.8619 43.8177 26.0635 43.6456 26.0944 43.4098C26.3026 41.8194 26.1751 40.4572 25.8802 39.3111L26.0541 39.2033C26.274 39.0669 26.3419 38.7777 26.2055 38.5578C26.0757 38.3487 25.8099 38.2831 25.5947 38.3933C25.3468 37.7211 25.0477 37.1431 24.7407 36.657C26.1563 35.9258 27.7402 35.3014 29.4657 34.8003C30.4904 36.1681 32.3476 39.455 31.8132 44.81C31.7874 45.0673 31.9754 45.2975 32.2332 45.3228C32.2491 45.3242 32.2646 45.3252 32.2801 45.3252C32.5182 45.3252 32.7216 45.1447 32.746 44.9028C33.2663 39.6894 31.6908 36.3313 30.4369 34.5439C32.5257 34.0166 34.7255 33.6791 36.9994 33.5488C38.0705 35.1284 40.1377 39.1559 39.571 46.1366C39.5499 46.3948 39.7421 46.6208 40.0004 46.6419C40.0135 46.6428 40.0261 46.6433 40.0388 46.6433C40.2807 46.6433 40.4855 46.4577 40.5057 46.2125C41.0462 39.5609 39.2588 35.4341 38.0808 33.4967C38.4577 33.485 38.8285 33.478 39.1937 33.478C40.8835 33.478 42.5447 33.5886 44.1544 33.8042C44.1788 33.8825 44.2163 33.9575 44.2819 34.0161C44.3199 34.0498 48.0601 37.4844 47.3279 44.8105C47.3021 45.0683 47.4901 45.298 47.7479 45.3237C47.7638 45.3252 47.7793 45.3261 47.7952 45.3261C48.0333 45.3261 48.2368 45.1456 48.2612 44.9042C48.8569 38.9417 46.6988 35.4294 45.5597 34.0259C47.7226 34.4066 49.7743 34.9803 51.6516 35.742C52.7822 36.8825 54.4979 39.3177 53.9827 43.2884C53.9494 43.5453 54.1304 43.7802 54.3872 43.8139C54.4079 43.8167 54.428 43.8177 54.4482 43.8177C54.6802 43.8177 54.8818 43.6456 54.9122 43.4094C55.3107 40.3409 54.4857 38.0952 53.5243 36.5914C57.9652 38.8452 60.564 42.0612 60.564 45.4273C60.564 52.5561 48.9427 54.0523 39.1937 54.0523Z" fill="black"/>
</svg>
